<?xml version="1.0" encoding="UTF-8"?>
<svg xmlns="http://www.w3.org/2000/svg" viewBox="0 0 1100.7 849.2">
  <defs>
    <style>
      .cls-1 {
        letter-spacing: -.02em;
      }

      .cls-2 {
        fill: #f7e1ff;
        stroke: #999;
      }

      .cls-2, .cls-3 {
        stroke-linecap: round;
        stroke-linejoin: round;
      }

      .cls-4 {
        letter-spacing: -.01em;
      }

      .cls-5 {
        letter-spacing: -.1em;
      }

      .cls-3 {
        fill: none;
        stroke: #000;
        stroke-width: 2px;
      }

      .cls-6 {
        letter-spacing: -.01em;
      }

      .cls-7 {
        letter-spacing: -.04em;
      }

      .cls-8 {
        fill: #333;
        font-family: Questrial-Regular, Questrial;
        font-size: 10px;
      }

      .cls-9 {
        letter-spacing: -.01em;
      }

      .cls-10 {
        letter-spacing: 0em;
      }

      .cls-11 {
        letter-spacing: -.03em;
      }

      .cls-12 {
        letter-spacing: -.02em;
      }

      .cls-13 {
        letter-spacing: -.01em;
      }
    </style>
  </defs>
  <g id="Greenwich">
    <path class="cls-2" d="M794.5,368h-.1c-2.6,.1-4.4,.2-5.2,.2-2,0-4,1-6,2.8-.7,.6-2.3,2.4-4.8,5.4-1.5,1.8-2.7,3.8-3.6,5.9-.5,1.3-1.3,3.6-2.4,6.7-1.8,4.2-4.6,7.2-8.7,8.9-.5,.3-4.9,1.5-13.2,3.8-2-.2-9.3-.3-21.6-.3-3.9,0-8.7,.5-14.3,1.4-5.7,.9-10.5,1.3-14.4,1.3-4.4,0-8.1-1-11.1-3.1-2.5-1.7-5.1-4.8-7.8-9.1-1.7-2.7-3.6-4.7-5.7-6-1.9-1.2-4-1.8-6.3-1.8-2.5,0-4.7,1.2-6.5,3.6-1.6,2.2-2.5,4.7-2.5,7.5,0,2.6,.9,5.7,2.7,9.2,1.7,3.6,2.6,6.7,2.6,9.3,0,1.1,.1,2.5,.3,4.1,0,3-1.7,5.7-4.9,8.3-3.7,2.9-7.3,4.3-10.8,4.3-4.7,0-8.4-.7-11-2.2-.7-.4-1.5-.9-2.2-1.6-2.5,4.4-3.8,6.7-4,7.2,.6,.1,.8,.8,.6,2.1-.2,1.2,.1,1.8,1,1.9,1.4,.1,2.2,.6,2.6,1.7,.3,1,.6,1.5,.9,1.5,1.1,0,1.9-.5,2.5-1.7,.7-1.1,1.5-1.7,2.5-1.7,.6,0,1.2-.1,2.1-.1,.5,0,.8,.4,.8,1,0,1-.9,1.8-2.6,2.5-.6,.6-.8,1.7-.6,3.2,.2,1.5-.3,2.8-1.6,3.8,.2,.8,.2,1.3,0,1.5,0,0-.5,.2-1.4,.6-.5,.2-.8,.6-.8,1.2,0,1.4,.2,2.6,.7,3.5,.2,.5,.8,1.5,1.5,2.7,.1,.3,.5,.3,1.1,.2,.6-.1,1,0,1.2,.3,.4,.7,.9,2,1.7,4,.3,.8,1.6,1.6,3.9,2.2,1.4-.6,2.2-1.1,2.2-1.3,0-1.1-.5-2.4-1.4-3.8-.9-1.4-1.3-2.1-1.3-2.2,0,0,2.2-.6,6.7-1.7,4.2,0,7.2,.1,8.8,.3,2.9,.5,4.6,.7,5.4,.7,1.6-.3,5-1,10-2.4,5.2-1.4,9.1-2.3,11.8-2.7,.5,0,.7,.5,.8,1.5-.2,.1-1.5,.5-4.1,1.1,0,.4,.5,2.1,1.6,5-.2,.1-1,.3-2.3,.4-.9,.1-1.3,.5-1.3,1.1,0,1.4,.3,3.5,.8,6.3,0,.2-.7,.5-2,.9-1.5,.5-2.7,.8-3.9,1-.1,1,.2,3.5,1,7.4,0,3.1,.4,5.5,1.2,7.2,.4,1,1.5,2.7,3.3,5.1,0,0,.9,.2,2.6,.5,1.6,.4,2.6,.9,3,1.5,1.4,2.4,2.4,5.7,3.1,9.8-1.5,.4-2.8,.6-3.9,.6,1.7,1.8,2.5,2.6,2.5,2.5l2.1-.4c1.5-.1,2.4,0,2.6,.4,.3,.4,.7,1,1.3,1.7,.5,.8,.5,1.7,.1,2.6-.6,1.2-.8,3.6-.8,7.3,0,1,1.3,1.8,3.9,2.6l5.7,1.1v-.1l.9-.4,1-5.3,5,2.2,1.2,1.3,8.8,6.4,13.3,18.1,8.7,10.9,2.9-1.4,1.4,2.9,6.6-4.3-.1-1.9c3.4-2.5,5.7-4.6,6.9-6.2l-.5-4.6c2.2,.6,4.4,.9,6.8,.9l.8-4.1-1.9-1.3,1.3-3-1.9-2.2c.5-1.8,1.9-2.7,4.1-2.9l2.5-6.4,2.8,.2,1.8-2.8-1.5-2.9,3.7,.3,2-2.4-2.4-2.1,1.5-2.6-.1-1.4,1.8-3-2.4-6.9c-.4-4.6-1.3-8.1-2.5-10.5-1.5-1.8-2.6-3.8-3.2-6-1.6-4.7-2.2-9.4-1.8-14.1l3.7-2.9c1.9-4.4,4.4-7,7.7-7.5,1.2-3.3,3.8-4.9,7.6-4.7l1.1-3.9,3.1,.2,3,1.1,2.6-2.2,2.6,.9,2.1-2,4.9,6.3,8-13c2.7,.1,5.2,1.2,7.5,3.2-.2-1.3-.8-3.6-1.7-6.9-.9-2.7-1.3-5.2-1.3-7.3-.4-2-.6-3.7-.6-5.1-.2-1.8-.4-3.5-.4-5.1-.9-1.5-1.3-3.1-1.3-4.7v-11.7c-.6-3.5-.9-6.3-.9-8.5,.1-1.9,.2-3.5,.2-4.6,0-6.4-.1-10.4-.3-12-.5-4.3-1.9-7.9-4-10.6-.7,.3-1.4,.7-2.1,1.2-6.6,3.8-14.3,5.5-23.1,5.1Z"/>
    <text class="cls-8" transform="translate(712 454.53)"><tspan x="0" y="0">G</tspan><tspan class="cls-13" x="7.23" y="0">r</tspan><tspan x="10.55" y="0">eenwich</tspan></text>
  </g>
  <g id="Kingston">
    <path class="cls-2" d="M243.7,719.2l-2.3,7.3,3.6,8.5c-2,10.2-2.2,20-.7,29.2l-2.6,3.5c1.6,4.4,4.9,5.4,10.1,3.1,3.7-2.3,8.2-5.9,13.4-10.7,2.8-1.6,6-5.2,9.8-10.6l-1.1-5.5,5.8-14.8c.5-3.1,3.2-6.1,8.1-9,1.5-1.9,2.3-4.3,2.5-7.3,.3-2.7,1.5-5.1,3.6-7.1,2.4-1.1,4-3.8,4.7-8l-3.7-1.4c2.5-3.7,6.3-8.1,11.3-13,2.2-.3,3.5-1.8,4-4.3l3.5-1.8,8.3-6.1c6.3-3.1,9.8-7.3,10.6-12.5,6.3,1.5,11.4,.9,15.4-1.9l4,.5h0l4.2-8.9c2.4-4.8,5.3-7.1,8.9-7.1h.7c.4-4,.2-6.3-.4-6.8-.5,0-1.5,.7-3,2-1.4,1.1-2.6,1.7-3.6,1.7-.5,0-1.1-.3-1.5-.9-.3-4.1-1.1-6.9-2.4-8.3-1.9-1.9-3.3-3.3-4.2-4.1-1.4-1.5-2.1-3.1-2.3-4.8l1.6-7.1c1-2.4,1.5-4,1.5-4.9,0-2.5-1.2-5.7-3.4-9.6-2.3-3.9-3.5-7.6-3.6-11-.5-3.9-.7-6.1-.7-6.8,0-3.4-.3-6.2-1-8.3-.9-2.5-1.7-5-2.4-7.5-.3-1.5-.5-3.3-.5-5.5,0-.7-.2-1.6-.7-2.7-.4-1.1-.7-2-.7-2.8,0-1,.7-2.3,2.1-3.6,1.3-1.3,1.8-2.5,1.6-3.7,0-.1-.1-.4-.2-.6-.3-.8-.9-2-1.8-3.5-1.3-2.3-2.1-4.2-2.4-6-2,1.5-3.9,3.1-5.8,4.8-.9,.8-2.7,2.1-5.3,3.7-2.9,2.8-6.3,6.1-10.4,9.9-1.7,2-3.9,4.3-6.5,6.9-1,.9-2.4,2.5-4.4,4.9l-3.9,4.8-7.6,3.2-3.8-11.5-.5-.9c-1-1.6-2-2.4-2.8-2.4-.5,0-1,.4-1.5,1.2-.6,.7-1.1,1.1-1.5,1.1-.7,0-1.3-.4-1.7-1.4-.8-1.4-1.2-2.1-1.3-2.3-2.6-2.9-3.9-4.4-4.1-4.6-1.5-1.4-3.2-2.1-5.2-2.1-.4,0-.9,.2-1.5,.6-.7,.3-1.2,.5-1.6,.5-.9,0-1.8-.5-2.7-1.5-1.1-1.2-1.9-2-2.5-2.3-.4,.7-1.5,2.2-3.3,4.6-1.1,1.4-1.7,3-1.7,4.7,0,1.1,.7,2,2,2.7,.7,.5,1.8,1.1,3.4,2,.3,.3,1.1,1.3,2.4,2.9,2.2,3,3,6,2.4,9-.6,2.7-.9,4.4-1,4.9l-.1,1.6c-1.1,2.4-1.8,5-1.9,7.5-.1,1.6-.1,4.2,0,7.8v1.7c0,1.4,.1,2.7,.4,3.9,.3,1.2,.5,2.5,.5,3.9v5.3c-.3,1.4-.7,3.1-1.1,5-.4,1.6-1.1,3.1-2.1,4.6-1.5,2.4-4.5,5.7-8.9,10.1,.1,0,.2-.1,.2-.2,4.8,4.6,9.3,14.1,13.7,28.7l4.3,.2-4.8,18.6-3.9-1.7-11,16.9,2.4,1.9-1.8,3.2-1,.5c-2.2,3-5.1,9.6-8.6,19.8Z"/>
    <text class="cls-8" transform="translate(287.03 622.7)"><tspan x="0" y="0">Kings</tspan><tspan class="cls-10" x="24.89" y="0">t</tspan><tspan x="28.05" y="0">on</tspan><tspan class="cls-6" x="-11.67" y="10">U</tspan><tspan x="-4.69" y="10">pon Thames</tspan></text>
  </g>
  <g id="Havering">
    <path class="cls-2" d="M918.2,129.7l-1.1-1.4c-6,1.4-11.9,1.7-17.9,.9l-2,2.5-1.6-1.4c-1.9-1.5-2.8-1.5-2.9,0l-1.1,1.6c-4.5,.8-9,3-13.8,6.7-1.4-1.6-2.8-2.4-4.2-2.3l-12.8-1.5h-20.7v.5c3.6,4.9,6.3,9.1,8.1,12.6,1.4,2.7,3.3,7.4,5.9,14.1v6.7c0,2.1,.3,4.8,.8,8.3,0,1.1-.2,3.5-.7,7-.2,1.9-.5,4.1-.9,6.6,1.1-.1,2.4-.5,3.8-1.1,.1,.2,.4,.8,.9,1.6,.4,1.1,.4,2.4,.1,3.9-.6,1.7-.7,3.3-.2,4.8,.2,.7,.5,1.7,.9,2.7,0,1.1-.1,6.6-.4,16.5-1.4,2.1-2.3,3.5-2.9,4.5-.9,1.5-1.4,3.1-1.4,4.8s.1,3.7,.2,6.1v3.5c0,.7,.5,1.5,1.5,2.5,.9,.9,1.4,1.7,1.4,2.5v2.6c-.2,.2-.9,.4-2.1,.6-1,.1-1.4,.5-1.4,1,0,1,.6,1.7,1.7,2.1,.7,.3,1.8,.6,3.4,1,1.2,.5,3.4,2.5,6.7,6.1,.4,.4,1,.5,1.8,0,.7-.3,1.2-.3,1.4,.3,.9,1.7,2.5,3.8,4.9,6.2,2.4-.8,4.6-1.9,6.8-3.3,2.2-1.4,4-2.4,5.6-2.9,1.5-.6,4.5-.8,9-.7,2.4,0,4.9,.2,7.6,.3,.1,.3-.2,1.5-.8,3.5-.7,2.2-1.1,3.7-1.1,4.5,0,.3,.5,.6,1.5,.9,1,.3,1.6,1.1,1.6,2.3,.4,.8,.5,1.8,.2,3.2-.2,1.2-.1,2.3,.5,3.2,.7,1.2,1.5,2,2.2,2.1,.4,.1,.8,.2,1.1,.2,1.8,3.6,2.7,5.4,2.7,5.6-.6,.8-1.3,1.9-2,3-1.5,2.4-2.3,4.6-2.6,6.9-2.4,2.2-4.1,3.8-5,4.7-1.4,1.6-2.5,4.4-3.2,8.4-.3,1.7-.9,3-1.8,4-.4,.5-1.5,1.4-3.5,2.9-2,1.6-3.6,3.4-4.8,5.5-1.1,2.6-2.2,4.8-3.3,6.6-3.9,7.1-6,11-6.2,11.5-1.6,4.2-2.7,8.7-3.2,13.5-.4,2.8-.8,7.5-1.5,14,0,.4-.5,2.9-1.2,7.3,.7,.1,1.5,.2,2.3,.2,4.5,0,9.4,2.1,14.7,6.4,1.8,2.2,2.9,4.3,3.5,6.1,.9,3.3,1.4,5,1.5,5.3,1.3,2.9,2.7,7.9,4.2,15,1.3,5.8,3.1,10.6,5.6,14.3,1.9,2.7,4.4,4.5,7.6,5.5,2.2,.6,5.6,1,10,1,3.1,0,7-.8,11.8-2.4,2.8-.9,5.3-1.6,7.5-1.9l1.1-8.6,3.3-5-.4-4.7c-.4-2.2,1.7-3.9,6.2-5.1,2.1-1.8,5.8-2.8,10.8-2.9l4-2.9-.7-2.2-2.7-2.7-2-10,19.9-2.2v-1.6l1.5-1.1-.8-4.5-1.6-.4-.5-5.8,1.1-.7-5.1-11.6c2.7-1,5.8-.1,9.2,2.7l.8-1.6-.8-.9,.4-1.5-6.2-3.2,3.5-5.7,4.3,1.5,1.1-3.3-2.2-1.8,1.5-2.5,2.3-.2v-2.2l2.8-.5c1.9,6.4,3.5,13.9,4.7,22.5l12.9-1.6c0-4.1,.6-6.8,1.8-8.2,2.7-1.8,2.8-3.8,.3-6l-.5-15.1,2.9-.5c3.6-2.4,7.7-3,12.3-1.8l27.6-6.2-1.3-4.5,4.2-.4,1.2-2.2,11.6-1.2,1.1-1.4,24.5-3.5,2.2,2.7,2.3-.5,.2-6-3.2-6.4-3.3,.7c-.5-4.4-1.5-8.7-2.9-12.8l-3.3-4.4-2.7,.9c-3-4.4-6.2-7.2-9.8-8.5l-4.5-17.9c-7.9,.7-17.9,2.4-30.1,5-2.6-7.1-5.4-14-8.5-20.6-2-4.5-4-8.6-5.8-12.2-4.9-5.2-9.3-12.3-13.3-21l-1.1-18.3c-4.6-.1-11.7-1.5-21.2-4.2l3.5-5.6,2.2-1.3,.5-3.4,6.2-1.8-2.4-3.5c-3.2-6.8-9.6-13.7-19.2-20.6-8.2-4.5-19-12.2-32.5-23.3-7.9,5.3-17.9,10.2-30.1,14.5Z"/>
    <text class="cls-8" transform="translate(943.96 262.85)"><tspan x="0" y="0">Ha</tspan><tspan class="cls-10" x="12.92" y="0">v</tspan><tspan x="17.71" y="0">ering</tspan></text>
  </g>
  <g id="Barking">
    <path class="cls-2" d="M901.8,259.7c.6-2,.9-3.2,.8-3.5-2.7-.1-5.2-.3-7.6-.3-4.5-.1-7.5,.1-9,.7-1.6,.5-3.4,1.5-5.6,2.9-2.2,1.4-4.4,2.5-6.8,3.3-2.4-2.4-4-4.5-4.9-6.2-.2-.6-.7-.6-1.4-.3-.8,.5-1.4,.4-1.8,0-3.3-3.6-5.5-5.6-6.7-6.1-1.6-.4-2.7-.7-3.4-1-1.1-.4-1.7-1.1-1.7-2.1,0-.5,.4-.9,1.4-1,1.2-.2,1.9-.4,2.1-.6v-2.6c0-.8-.5-1.6-1.4-2.5-1-1-1.5-1.8-1.5-2.5v-3.5c-.1-2.4-.2-4.4-.2-6.1s.5-3.3,1.4-4.8c.6-1,1.5-2.4,2.9-4.5,.3-9.9,.4-15.4,.4-16.5-.4-1-.7-2-.9-2.7-.5-1.5-.4-3.1,.2-4.8,.3-1.5,.3-2.8-.1-3.9-.5-.8-.8-1.4-.9-1.6-1.4,.6-2.7,1-3.8,1.1,.4-2.5,.7-4.7,.9-6.6-1.3,1.1-3.6,2.8-6.8,5.2-2.7,1.9-4.7,3.7-6.1,5.5-6.9,6.8-10.6,10.5-11.1,11,.7,.9,1.7,2.4,2.9,4.5l-6.8,2.1c0,.7,.8,3.9,2.3,9.6,.7,0,2.4-.2,5.2-.8,.3,0,.5,1.4,.5,4.2-.6,.1-1.1,.3-1.5,.4-.7,.2-1,.4-1,.7,0,1.2,.1,1.9,.4,2.1,.2,.1,.6,0,1.2-.3,.5-.3,.7-.3,.7,0,0,.5,.2,1.7,.5,3.3-.3,.5-.9,.9-1.8,1.3-1.1,.3-1.9,.7-2.2,1-.4,.3-.3,1.4,.3,3.3,.3,.9,.6,2,.9,3.1,.8,.4,1.3,.4,1.7-.1,0,1.1-.4,2.6-1,4.6,0,2.4-.6,4.3-1.9,5.7-.3,.5-2,1.8-5.1,4.2-2.8,2.1-5.4,3.5-8,4.2-.4,.2-.6,.5-.6,1.1,.1,.9,0,1.5,0,1.8-.1,.2-.6,1.2-1.3,3-.6,1.2-.9,2.3-.9,3.1,0,.4,.6,.5,1.8,.4,1.1,0,1.7,.1,1.7,.5,0,1.5-.5,2.5-1.6,2.8-.6,.3-1.8,.3-3.6,0-1.9-.2-3.1-.3-3.6-.2-.5,.2-.8,1.4-.8,3.7,0,.1,.5,.2,1.3,.4,.9,.3,1.5,.6,1.6,1,0,.6-.6,1.6-1.5,3-1,1.4-1.7,2.1-2.2,2.3-.6,.2-1.4,.2-2.3,0-.9-.3-1.7-.2-2.4,.1-1.1,2.1-2.5,4-4.3,5.7-.6,.5-1.4,1-2.6,1.5-1.3,.5-2.1,.9-2.5,1.2-3.6,3.3-6.7,5.8-9.4,7.3-.4-.8-.6-1.8-.8-3.2-.1-3.3-.4-4.9-.8-4.9-.6,1.1-1.7,2-3.3,2.6-1.6,.5-2.7,.8-3.2,1.1-1.5,.7-2.9,1.8-4.1,3.3-1.4,1.6-2.7,2.7-4.1,3.4-.4,.9-1,1.4-1.8,1.4-1.5-.5-2.4-.7-2.9-.7-.8,0-1.6,.4-2.4,1.1-.8,.7-1.6,1.1-2.4,1.1-.9,0-2-.3-3.2-.8-1.4-.5-2.6-1-3.5-1.2-.2,1-.4,2-.6,3-.9,2.3-1.4,4.3-1.4,6.1,.7,2.2,2,5.1,4,8.5,2.3,2.8,3.8,7.3,4.3,13.6l1.9,.2c2.3-.6,4.1-.4,5.4,.7,2.3,1.4,3.6,2.6,4.1,3.5,1.6,.3,3.1,.9,4.2,1.9,.6,1.3,1.9,1.6,4,1,1.3-1.2,2.4-1.5,3.3-1,.5,.7,1.1,1,1.9,1,1.9-.2,2.7,.7,2.5,2.7l.2,4.1,3.2,4.7c-.7,3.2,.1,6.2,2.2,8.8,2.8,1.2,4,4,3.5,8.5,8.8,.4,16.5-1.3,23.1-5.1,.7-.5,1.4-.9,2.1-1.2,3-1.9,4.7-2.8,5-3,2.8-1.2,5.6-1.9,8.6-1.9,2.2,0,5.8,1.4,11,4,4.3,1.6,9.3,3.6,14.9,6.1,3.9,1.5,8.3,2.6,13,3.1,.7-4.4,1.2-6.9,1.2-7.3,.7-6.5,1.1-11.2,1.5-14,.5-4.8,1.6-9.3,3.2-13.5,.2-.5,2.3-4.4,6.2-11.5,1.1-1.8,2.2-4,3.3-6.6,1.2-2.1,2.8-3.9,4.8-5.5,2-1.5,3.1-2.4,3.5-2.9,.9-1,1.5-2.3,1.8-4,.7-4,1.8-6.8,3.2-8.4,.9-.9,2.6-2.5,5-4.7,.3-2.3,1.1-4.5,2.6-6.9,.7-1.1,1.4-2.2,2-3,0-.2-.9-2-2.7-5.6-.3,0-.7-.1-1.1-.2-.7-.1-1.5-.9-2.2-2.1-.6-.9-.7-2-.5-3.2,.3-1.4,.2-2.4-.2-3.2,0-1.2-.6-2-1.6-2.3-1-.3-1.5-.6-1.5-.9,0-.8,.4-2.3,1.1-4.5Z"/>
    <text class="cls-8" transform="translate(808.84 312.21)"><tspan x="0" y="0">Barking &amp;</tspan><tspan x="-3.91" y="10">Dagenham</tspan></text>
  </g>
  <g id="Redbridge">
    <path class="cls-2" d="M791.5,158.6l-4-5.1-6.9,3.6c1.9,2,3.1,4.4,3.7,7.3l-3.7,2.7,.8,6.3-3.5,1.9c-1.9,.7-3.9,.7-6,0l-7.9-4.2-4,2.7c-3.1,1.9-5.9,2.4-8.4,1.5-4.3-.6-10.7-4.4-19.2-11.5-5.6-.2-8.8-2-9.4-5.6l1.1-4.3,2.5-1.9,3.3,.4,1.1-1.4-1.9-3.5c-5.3,1.3-11,3.5-16.8,6.5-3.1-7-11-15.6-23.5-26-1,2.6-1.9,5-2.8,7.4-1.3,3.9-2.9,6.8-4.9,8.5-2.7,1.6-5,3.5-7,5.6,2.7,.6,5,1.7,6.9,3.4,1,.6,2.2,1.9,3.7,3.7,1.4,1.6,2.2,2.6,2.3,2.9,.3,.6,.4,1.8,.4,3.7,0,4.8-.9,8.9-2.9,12.4-.9,1.6-3.4,6.8-7.5,15.5-.2,1-.1,2.9,.2,5.9l-.4,10.3c.4,5.1,1.6,10.3,3.6,15.8,1.1,2.9,2.5,6.4,4.1,10.6,0,1-.1,3.5-.2,7.4,0,.6-.3,1.1-.9,1.6-.6,.5-.7,1-.6,1.6,.5,1.7,1.2,2.4,2.1,2.3,1-.2,1.5-.2,1.5-.1,.3,2.4-.1,3.8-1.2,4.4-1,.5-1.5,1-1.4,1.5,.3,1.2,.9,3.4,1.8,6.4,0,.7-.8,1.1-2.4,1.3-1.8,.1-2.9,.4-3.3,.8-.4,.5-.5,1.5-.3,3,0,.8,.2,1.9,.3,3.3,0,2.7,.3,4.3,.9,4.9,.3,.2,1,.5,2.2,.8,1.1,.3,1.9,.8,2.4,1.4,2.3,3.1,4.1,5.6,5.4,7.6l.4-2.4,4,1.1c.2,2.1,.3,3.1,.3,3.2,.5,.6,3.4,.1,8.8-1.6,3.5-1.5,7-1.8,10.5-1l7.9-.7-6.8-7.8-.3-4.7,10.9-5.9,13.4,14.3,4.5-2.2,3.8,3.1,2.2,2.7c.9,2.1,1.2,4.7,.9,7.9l.5,5.6c.4,2.1,.4,4.5,0,7.2,.9,.2,2.1,.7,3.5,1.2,1.2,.5,2.3,.8,3.2,.8,.8,0,1.6-.4,2.4-1.1,.8-.7,1.6-1.1,2.4-1.1,.5,0,1.4,.2,2.9,.7,.8,0,1.4-.5,1.8-1.4,1.4-.7,2.7-1.8,4.1-3.4,1.2-1.5,2.6-2.6,4.1-3.3,.5-.3,1.6-.6,3.2-1.1,1.6-.6,2.7-1.5,3.3-2.6,.4,0,.7,1.6,.8,4.9,.2,1.4,.4,2.4,.8,3.2,2.7-1.5,5.8-4,9.4-7.3,.4-.3,1.2-.7,2.5-1.2,1.2-.5,2-1,2.6-1.5,1.8-1.7,3.2-3.6,4.3-5.7,.7-.3,1.5-.4,2.4-.1,.9,.2,1.7,.2,2.3,0,.5-.2,1.2-.9,2.2-2.3,.9-1.4,1.5-2.4,1.5-3-.1-.4-.7-.7-1.6-1-.8-.2-1.3-.3-1.3-.4,0-2.3,.3-3.5,.8-3.7,.5-.1,1.7,0,3.6,.2,1.8,.3,3,.3,3.6,0,1.1-.3,1.6-1.3,1.6-2.8,0-.4-.6-.5-1.7-.5-1.2,.1-1.8,0-1.8-.4,0-.8,.3-1.9,.9-3.1,.7-1.8,1.2-2.8,1.3-3,0-.3,.1-.9,0-1.8,0-.6,.2-.9,.6-1.1,2.6-.7,5.2-2.1,8-4.2,3.1-2.4,4.8-3.7,5.1-4.2,1.3-1.4,1.9-3.3,1.9-5.7,.6-2,1-3.5,1-4.6-.4,.5-.9,.5-1.7,.1-.3-1.1-.6-2.2-.9-3.1-.6-1.9-.7-3-.3-3.3,.3-.3,1.1-.7,2.2-1,.9-.4,1.5-.8,1.8-1.3-.3-1.6-.5-2.8-.5-3.3,0-.3-.2-.3-.7,0-.6,.3-1,.4-1.2,.3-.3-.2-.4-.9-.4-2.1,0-.3,.3-.5,1-.7,.4-.1,.9-.3,1.5-.4,0-2.8-.2-4.2-.5-4.2-2.8,.6-4.5,.8-5.2,.8-1.5-5.7-2.3-8.9-2.3-9.6l6.8-2.1c-1.2-2.1-2.2-3.6-2.9-4.5,.5-.5,4.2-4.2,11.1-11,1.4-1.8,3.4-3.6,6.1-5.5,3.2-2.4,5.5-4.1,6.8-5.2,.5-3.5,.7-5.9,.7-7-.5-3.5-.8-6.2-.8-8.3v-6.7c-2.6-6.7-4.5-11.4-5.9-14.1-1.8-3.5-4.5-7.7-8.1-12.6l-.2-.4c-8.8,2.9-16.9,8.9-24.3,18.1l-3.6-3.9-10.9,7.5-.9-1.1-8.7,3.1Z"/>
    <text class="cls-8" transform="translate(728.3 229.23)"><tspan class="cls-4" x="0" y="0">R</tspan><tspan x="6.57" y="0">edbridge</tspan></text>
  </g>
  <g id="Waltham_Forest" data-name="Waltham Forest">
    <path class="cls-2" d="M648.6,91.9h-5.9l-1.1,15.7-1,3c-1,3.8-2.6,8.1-5,13-2.5,5.1-4.2,9-5,11.8-.4,1.4-1.1,2.8-2.1,4.1-1.1,1.7-2,3-2.4,4-.5,1.1-1.2,2.2-2.3,3.3-1.1,1.2-1.8,2.3-2.3,3.3-2.3,2.8-3.9,4.9-4.9,6.4-1.6,2.5-2.4,4.9-2.4,7.2,0,.2,.3,1.1,1,2.7,.7,1.6,1.1,2.7,1.1,3.3,0,1.5-1.1,2.8-3.4,3.9-3.2,1.7-5.1,2.7-5.4,3-.5,.4-.9,1-1.4,1.8-.6,1.1-1.3,2.4-2,4.1-1.3,3.4-2.7,5.9-4.2,7.6-1.8,2.1-3,3.8-3.7,5.4-.5,1.6-1,2.6-1.4,3-1.7,2.9-2.5,5-2.5,6.3,0,2.2,.1,5.2,.4,9,0,2.8-.4,5.1-1.1,6.9-.8,1.9-2.2,3.8-4.2,5.8-2,1.4-3.4,2.4-4.2,3-1.5,1.1-2.2,2.4-2.2,4,0,.8,.6,1.9,1.8,3,.2,.3,.5,.6,.7,.8,.9,1,1.4,1.7,1.6,2.2,.1,.4,.3,1.5,.6,3.4,.2,1.3,.6,2.2,1.4,3l-.1,.2c0,.8,.5,1.7,1.5,2.8,.5,1.1,1.8,2.5,3.8,4.2,.9,.9,1.8,2.2,2.7,4.2,1.1,1.3,2.7,3,4.5,5,.6,.6,1,1.5,1.3,2.7,.2,1.2,.6,2.2,1.1,2.8,.4,.6,1,1,1.9,1.4,.5,.2,1.3,.5,2.4,.9,1.4-.4,2.6-.4,3.7,0,1.3,.6,2.2,.9,2.8,.9,.5-.2,1.1-.4,1.8-.7,.6-.1,1.7,.1,3,.8,1.8,0,2.9-.1,3.3-.3,1.2-.4,2.2-.8,3.1-1,3.1,2.4,5.9,5.9,8.2,10.7,.6,1.1,1.9,2.3,3.9,3.5,1.8,1.2,2.8,2.4,3,3.7,.4,2,.6,3.4,.6,4.2,3.6-.5,6.6-1.9,8.9-4.2l2.8,7.1,5.5-2.5c3.5-3.2,7.7-3.9,12.7-2.1l.2,2.5c1.8,0,3.9-1,6.1-3.2l-1.5-3.3c.8-1.4,2.8-2.2,5.7-2.3l3.8,2.3c2.6-.7,4.9-1.7,6.7-3.2l.3-1.1c-1.3-2-3.1-4.5-5.4-7.6-.5-.6-1.3-1.1-2.4-1.4-1.2-.3-1.9-.6-2.2-.8-.6-.6-.9-2.2-.9-4.9-.1-1.4-.3-2.5-.3-3.3-.2-1.5-.1-2.5,.3-3,.4-.4,1.5-.7,3.3-.8,1.6-.2,2.4-.6,2.4-1.3-.9-3-1.5-5.2-1.8-6.4-.1-.5,.4-1,1.4-1.5,1.1-.6,1.5-2,1.2-4.4,0-.1-.5-.1-1.5,.1-.9,.1-1.6-.6-2.1-2.3-.1-.6,0-1.1,.6-1.6,.6-.5,.9-1,.9-1.6,.1-3.9,.2-6.4,.2-7.4-1.6-4.2-3-7.7-4.1-10.6-2-5.5-3.2-10.7-3.6-15.8l.4-10.3c-.3-3-.4-4.9-.2-5.9,4.1-8.7,6.6-13.9,7.5-15.5,2-3.5,2.9-7.6,2.9-12.4,0-1.9-.1-3.1-.4-3.7-.1-.3-.9-1.3-2.3-2.9-1.5-1.8-2.7-3.1-3.7-3.7-1.9-1.7-4.2-2.8-6.9-3.4,2-2.1,4.3-4,7-5.6,2-1.7,3.6-4.6,4.9-8.5,.9-2.4,1.8-4.8,2.8-7.4,0-.1,0-.2,.1-.3l3.4-7.4-.9-9.6-1.8-2v-1.8c-.5-2.8-1.5-4-3.1-3.6-3.5,.6-6.1,.9-7.9,.9-4.2-2.1-10-3-17.6-2.7l-2.7-3.5-1.3-.2-2,1.3-2.4-1.1-4.7-.9,.7-5.2Z"/>
    <text class="cls-8" transform="translate(616.4 211.3)"><tspan class="cls-11" x="0" y="0">W</tspan><tspan x="9.25" y="0">altham</tspan><tspan class="cls-9" x="6.25" y="10">F</tspan><tspan x="11.93" y="10">o</tspan><tspan class="cls-13" x="17.57" y="10">r</tspan><tspan x="20.89" y="10">est</tspan></text>
  </g>
  <g id="Enfield">
    <path class="cls-2" d="M629.8,18.4c-4.5-1.1-8.7-1.8-12.8-2.1l-17.5-.6c-3.2-1.3-7-1.7-11.6-1.3-4,2.4-11.2,2.7-21.6,.9l-11.9-7c-3.8-2.8-8.1-4.2-13-4.2-5.2,.6-11.4-.1-18.6-1.9-8.7-2.4-15.4-1.2-20.1,3.7-2.6,2.2-7.1,2.9-13.5,2.4-8-.8-15.4,1-22,5.4-3.9,2.6-9,2.8-15.5,.7-3-1.8-6.6-2.8-10.7-3l.1,13.2-11.1,19.3-4.4-.2-7,9c-1.8,4.3-3.2,8.3-4.2,12.1,2.2,.7,5.3,1.9,9.4,3.7,3.2,1.4,6.3,2.5,9.5,3.2,7.6,1.9,12.7,3.6,15.4,4.9,4.9,2.6,7.9,6.2,9,11.1,2.5,10.8,5,17.5,7.2,20.2,2.8,1.4,4.9,2.7,6.3,3.9,1,1,2.7,2.9,4.8,5.7,1.6,2.1,4.1,3.9,7.5,5.5,4.2,2,6.5,3.2,7.1,3.6,0,1.5-.9,3.3-2.6,5.4-1.8,2.4-2.9,4.2-3.2,5.5-.9,3.8-1.6,6.4-2.1,7.7-.8,2.2-2.1,4.5-4,6.8-2.5,2.6-4.2,4.6-5.1,5.9,.6,1.1,.9,1.8,.7,2.2-.1,.2-.4,.4-1.1,.7-.6,.2-.9,.5-.9,.8,.6,1.3,1.6,2.9,2.9,4.9,1.5,2.2,2.7,4.1,3.5,5.8,.5-.1,1-.4,1.6-.8,.6-.5,1.3-.8,2-.8,1.2,0,2.6,.4,4.2,1.1,1.7,.7,3.1,1,4.2,1.1,2,0,3.5,.4,4.3,.9,.7,.6,1.7,.8,2.7,.8,4,1.7,9.9,2.3,17.5,1.8,4,0,9.3-.6,15.8-1.6,5.7-.9,9-1.5,10-2l8.6,2.5c6.9,.3,14.5,0,22.5-1,12.7,0,19.6,.2,21,.7,.6,.2,1.5,.4,2.6,.5,1,.1,2,.3,2.9,.7,1.3,.3,2.6,.5,3.9,.7,1,.2,2.2,.7,3.6,1.5,.5-.8,.9-1.4,1.4-1.8,.3-.3,2.2-1.3,5.4-3,2.3-1.1,3.4-2.4,3.4-3.9,0-.6-.4-1.7-1.1-3.3-.7-1.6-1-2.5-1-2.7,0-2.3,.8-4.7,2.4-7.2,1-1.5,2.6-3.6,4.9-6.4,.5-1,1.2-2.1,2.3-3.3,1.1-1.1,1.8-2.2,2.3-3.3,.4-1,1.3-2.3,2.4-4,1-1.3,1.7-2.7,2.1-4.1,.8-2.8,2.5-6.7,5-11.8,2.4-4.9,4-9.2,5-13l1-3,1.1-15.7,1.2-18.9,2.4-9.4-.2-3.3-2.7-4.5,.7-35.6-.1-.7c-6.3-.1-11.1-.4-14.2-1.1Z"/>
    <text class="cls-8" transform="translate(525.78 96.3)"><tspan x="0" y="0">Enfield</tspan></text>
  </g>
  <g id="Haringey">
    <path class="cls-2" d="M606.1,178.4c-1.4-.8-2.6-1.3-3.6-1.5-1.3-.2-2.6-.4-3.9-.7-.9-.4-1.9-.6-2.9-.7-1.1-.1-2-.3-2.6-.5-1.4-.5-8.3-.7-21-.7-8,1-15.6,1.3-22.5,1l-8.6-2.5c-1,.5-4.3,1.1-10,2-6.5,1-11.8,1.6-15.8,1.6-7.6,.5-13.5-.1-17.5-1.8-1,0-2-.2-2.7-.8-.8-.5-2.3-.9-4.3-.9-1.1-.1-2.5-.4-4.2-1.1-1.6-.7-3-1.1-4.2-1.1-.7,0-1.4,.3-2,.8-.6,.4-1.1,.7-1.6,.8-.1,.1-.2,.1-.4,.1-1.3,.3-3.4,1.5-6.1,3.7,0,.8,.6,4.2,1.9,10.4,.6,2.2,.4,4-.6,5.3,0,0-1.2,1.1-3.5,3.1-3.4,3-5.9,4.6-7.8,4.7-.2-.1-.6-1-1.1-2.9-.6-2-.9-3.5-.9-4.7,.2-3.7-1.3-6.4-4.3-8.2-.6,.8-1,1.8-1.3,3.1-.4,1.6-.6,2.8-.9,3.3-2.3,5.8-3.7,9-4.1,9.9-.9,3.6-.4,6.2,1.5,7.7l2.5,4.2-.4,2.7c0,2.8,.4,5.1,1.3,7,.7,1.6,1.1,2.5,1.1,2.7,0,.9-.4,1.5-1.1,1.8-.1,0-1,.2-2.6,.5-5,1.2-7.7,2.7-7.9,4.5-.1,1.1-.1,2,0,2.8,.5,2.6,.4,5-.3,7.3,0,0-.8,2.3-2.6,6.8-.7,2.2-1.2,3.7-1.3,4.4,.9-.5,1.9-.9,2.9-.9,2,0,4,.2,6.4,.8,.7,0,2-.1,3.8-.3,.6,0,1.1,.1,1.7,.5,.6,.3,1.2,.5,1.8,.5,1.6,0,4,.2,7.1,.6,1.5,0,2.8,.1,4,.3,0,0,.6,.5,1.8,1.5,2.9,.5,5.6,1.7,7.9,3.3,.2,0,.5,0,.7-.1h.1c.5-.2,1.1-.5,1.7-1,.5-.5,1.3-1.1,2.2-1.9,3-2.3,4.8-3.5,5.6-3.9,.6-.3,2.1-1.1,4.2-2.4,1.4-.8,2.9-1.4,4.5-1.6,.4-.2,1-.6,1.9-1.3,.6-.5,1.2-.8,1.9-.9l6.6,1.1c2.2,.3,3.6,.8,4,1.4,.8,1.2,1.3,3,1.4,5.4,.5,1.2,1.3,2.2,2.6,3.2,.7,.5,1.9,1.3,3.6,2.4,2.7,2.1,5.3,4.4,7.7,6.9,1.1-1.1,4.2-4.8,9.4-11.2,1.1-1.3,1.7-2,1.7-2.2-.6-2-.9-3.6-.9-4.9v-1.2c.5,.1,1,0,1.7,0,1.3,0,2.9,.2,4.9,.5h3.1c.3,0,.6,.1,1.1,.2h2.2c.3,0,.6-.2,.7-.7,.1-.6,.2-1.1,.2-1.4,.1-1.5,.4-2.6,.8-3.4,.4-.7,1.1-1,2-.9,.6,.1,1.5,.2,2.7,.3,.9,0,2-.1,3.4-.3,1.1,0,2.1,.3,3,.9,.2,.2,.6,.7,1.1,1.5,.4,.6,.8,.9,1.3,.9s.8-.3,1.2-.9c.3-.7,.7-1.1,1-1.2,1.1-.4,3-.9,5.7-1.5,2.1-.4,3.9-1.1,5.5-2h.4l4.9-1.2-.2-.9c-1.2-1.1-1.8-2.2-1.8-3,0-1.6,.7-2.9,2.2-4,.8-.6,2.2-1.6,4.2-3,2-2,3.4-3.9,4.2-5.8,.7-1.8,1.1-4.1,1.1-6.9-.3-3.8-.4-6.8-.4-9,0-1.3,.8-3.4,2.5-6.3,.4-.4,.9-1.4,1.4-3,.7-1.6,1.9-3.3,3.7-5.4,1.5-1.7,2.9-4.2,4.2-7.6,.7-1.7,1.4-3,2-4.1Z"/>
    <text class="cls-8" transform="translate(499.22 215.35)"><tspan x="0" y="0">Haringey</tspan></text>
  </g>
  <g id="Newham">
    <path class="cls-2" d="M726.5,262.1l-10.9,5.9,.3,4.7,6.8,7.8-7.9,.7c-3.5-.8-7-.5-10.5,1-5.4,1.7-8.3,2.2-8.8,1.6,0-.1-.1-1.1-.3-3.2l-4-1.1-.4,2.4-.3,1.1c-1.8,1.5-4.1,2.5-6.7,3.2l-3.8-2.3c-2.9,.1-4.9,.9-5.7,2.3l1.5,3.3c-2.2,2.2-4.3,3.2-6.1,3.2l-.2-2.5c-5-1.8-9.2-1.1-12.7,2.1l-5.5,2.5-2.8-7.1c-2.3,2.3-5.3,3.7-8.9,4.2-.3,0-.6,0-1,.1-.5,.9-.3,3.7,.6,8.5,.5,2.4,.9,4.7,1.5,6.8,0,.4,.1,.8,.1,1.1,.4,3.3-.2,6.1-1.9,8.5l-3.6,4c.4,4.1,2.5,8.3,6.3,12.6,2.2,1.7,4.7,3,7.5,4,6.2,4.4,7.4,10.6,3.6,18.5,2.9,2.3,4.5,4.7,4.8,6.9,.4,1.2,1.1,1,2.2-.5,.5-2.4,1.7-2.7,3.7-.9l5.5,3.8c1.5,1,1.7,2.7,.8,5l-1.7,4.8c.1,1.2,1.1,1.2,3,0,.4-1.9,.5-3.5,.3-4.8,1.4-3.6,2.8-3.6,4.3-.1,.2,1.6-.3,3.1-1.4,4.8-1.2,1.9-.6,2.9,1.8,3,3,0,2.8,2.6-.4,7.9,2.1,1.3,4,3.3,5.7,6,2.7,4.3,5.3,7.4,7.8,9.1,3,2.1,6.7,3.1,11.1,3.1,3.9,0,8.7-.4,14.4-1.3,5.6-.9,10.4-1.4,14.3-1.4,12.3,0,19.6,.1,21.6,.3,8.3-2.3,12.7-3.5,13.2-3.8,4.1-1.7,6.9-4.7,8.7-8.9,1.1-3.1,1.9-5.4,2.4-6.7,.9-2.1,2.1-4.1,3.6-5.9,2.5-3,4.1-4.8,4.8-5.4,2-1.8,4-2.8,6-2.8,.8,0,2.6-.1,5.2-.2h.1c.5-4.5-.7-7.3-3.5-8.5-2.1-2.6-2.9-5.6-2.2-8.8l-3.2-4.7-.2-4.1c.2-2-.6-2.9-2.5-2.7-.8,0-1.4-.3-1.9-1-.9-.5-2-.2-3.3,1-2.1,.6-3.4,.3-4-1-1.1-1-2.6-1.6-4.2-1.9-.5-.9-1.8-2.1-4.1-3.5-1.3-1.1-3.1-1.3-5.4-.7l-1.9-.2c-.5-6.3-2-10.8-4.3-13.6-2-3.4-3.3-6.3-4-8.5,0-1.8,.5-3.8,1.4-6.1,.2-1,.4-2,.6-3,.4-2.7,.4-5.1,0-7.2l-.5-5.6c.3-3.2,0-5.8-.9-7.9l-2.2-2.7-3.8-3.1-4.5,2.2-13.4-14.3Z"/>
    <text class="cls-8" transform="translate(691.85 348.3)"><tspan x="0" y="0">Newham</tspan></text>
  </g>
  <g id="Tower_Hamlets" data-name="Tower Hamlets">
    <path class="cls-2" d="M561.8,387.68c.8,.2,1.5,.5,2.2,.8,1.5,.6,4.8,2.4,9.6,5.5,3.5,2.2,6.8,3.3,10.1,3.3,4.2,0,7-.5,8.6-1.5,1.4-.9,3-2.1,4.7-3.7,1-1,2.4-2.3,4.2-4.1,3.3-3.1,6.6-4.6,10.1-4.6,3.9,0,6.2,0,6.9,.1,2.4,.3,4.3,1.2,5.7,2.8,1,1.1,1.7,2.5,2,4.1,.1,1,.3,2.6,.5,4.9,.6,3.7,.9,8.5,.9,14.5,0,.6,.1,1.3,.3,1.9,.5,2.7,1.8,5.5,3.7,8.4,2,2.9,3.9,5,5.7,6.5,.7,.7,1.5,1.2,2.2,1.6,2.6,1.5,6.3,2.2,11,2.2,3.5,0,7.1-1.4,10.8-4.3,3.2-2.6,4.9-5.3,4.9-8.3-.2-1.6-.3-3-.3-4.1,0-2.6-.9-5.7-2.6-9.3-1.8-3.5-2.7-6.6-2.7-9.2,0-2.8,.9-5.3,2.5-7.5,1.8-2.4,4-3.6,6.5-3.6,2.3,0,4.4,.6,6.3,1.8,3.2-5.3,3.4-7.9,.4-7.9-2.4-.1-3-1.1-1.8-3,1.1-1.7,1.6-3.2,1.4-4.8-1.5-3.5-2.9-3.5-4.3,.1,.2,1.3,.1,2.9-.3,4.8-1.9,1.2-2.9,1.2-3,0l1.7-4.8c.9-2.3,.7-4-.8-5l-5.5-3.8c-2-1.8-3.2-1.5-3.7,.9-1.1,1.5-1.8,1.7-2.2,.5-.3-2.2-1.9-4.6-4.8-6.9,3.8-7.9,2.6-14.1-3.6-18.5-2.8-1-5.3-2.3-7.5-4-3.8-4.3-5.9-8.5-6.3-12.6l3.6-4c1.7-2.4,2.3-5.2,1.9-8.5-3.6,.3-7.1,1-10.6,2.1-3.4,1.2-5.9,2.3-7.5,3.7-1.5-2.5-3-4.5-4.7-5.9l-3.9,4.3,.4,3.3-6.8,10.9c-2.9,.8-5.9,.6-9.1-.4-2.4-1.1-4.8-.2-7.1,2.3-3.5,1.5-5.9,1.6-7.1,.4-2.9-1.7-3.7-1.1-2.5,1.8l.8,1.6-3.7,.8-.2,2.8-8.7,1-2,2.1c-.2,2.5-2,4.2-5.3,5.2v1.5l-2.8,.1-5.9,2.3v.3c0,.7-.3,1.9-.7,3.3,0,.5,.3,.8,.8,.8,.6,.1,.8,.2,.8,.5,0,.6-.4,2-1.3,3.9-.2,1.6-.8,3.4-1.5,5.4h.16c.3-.01,.34-.1,.44-.1,.6,0,1.6,.1,2.9,.4,.8,0,1.4-.5,1.7-1.4,.4-1.6,.8-2.5,1-2.7,.9-.3,1.7-.3,2.6-.1,.8,.2,1.3,.6,1.3,1.1s-.1,1.2-.3,2.4c0,1.1,.1,2,.4,2.6,1.3,1.3,2.4,2.9,3.4,4.6,.8,1.4,1.2,2.2,1.2,2.5,0,1.1,.2,2.1,.5,2.9,.4,.9,.6,1.9,.6,3,0,.7-.3,1.3-.8,1.8-.7,.5-1.2,1-1.7,1.3-.7,.7-1.3,1.6-1.8,2.6-.6,1.4-1.2,2.6-1.7,3.5l-.3,.8Z"/>
    <text class="cls-8" transform="translate(602.82 359.25)"><tspan class="cls-5" x="0" y="0">T</tspan><tspan class="cls-10" x="4.67" y="0">ow</tspan><tspan x="17.57" y="0">er</tspan><tspan x="-5.35" y="10">Hamlets</tspan></text>
  </g>
  <g id="Hackney">
    <path class="cls-2" d="M583.5,237.3l-.5,.1-4.9,1.2h-.4c-1.6,.9-3.4,1.6-5.5,2-2.7,.6-4.6,1.1-5.7,1.5-.3,.1-.7,.5-1,1.2-.4,.6-.7,.9-1.2,.9s-.9-.3-1.3-.9c-.5-.8-.9-1.3-1.1-1.5-.9-.6-1.9-.9-3-.9-1.4,.2-2.5,.3-3.4,.3-1.2-.1-2.1-.2-2.7-.3-.9-.1-1.6,.2-2,.9-.4,.8-.7,1.9-.8,3.4,0,.3-.1,.8-.2,1.4-.1,.5-.4,.7-.7,.7h-2.2c-.5-.1-.8-.2-1.1-.2h-3.1c-2-.3-3.6-.5-4.9-.5-.7,0-1.2,.1-1.7,0v1.2c0,1.3,.3,2.9,.9,4.9,0,.2-.6,.9-1.7,2.2-5.2,6.4-8.3,10.1-9.4,11.2,1.7,1.5,3.8,4.2,6.3,8.2,2.5,1.2,4.3,1.9,5.4,2,.7,.1,2.1,.2,4,.2,1.5,.2,2.3,.8,2.3,1.7,0,.7,.2,1.4,.5,2.2,.2,.8,.3,1.5,.3,2.2,0,.6,.1,1.6,.4,2.8,1.7,4.9,2.7,7.4,3,7.7,1.2,.7,2.7,1.2,4.6,1.6,1.1,.2,2.8,.5,4.9,.8l4.2,6.3c.3,.5,1.3,2.1,2.9,4.7,0,.5-1.6,.5-4.9-.1-2.2-.4-3.9-.6-5.2-.6-.4,0-.8,1.5-1.1,4.5-.4,2.9-1,7.4-1.9,13.5-4.6,6.2-9.6,9.9-14.9,11.2,.1,1.9,.9,4.4,2.4,7.3,0,0,1.7,.7,5.3,1.9,1.8,.6,3.3,1.5,4.3,2.7,.2,.3,.3,.9,.5,1.8,.1,.7,.4,1,.9,1s.8-.4,1.2-1.2c.3-.8,.7-1.2,1.2-1.2,.9,0,1.4,.4,1.6,1l5.9-2.3,2.8-.1v-1.5c3.3-1,5.1-2.7,5.3-5.2l2-2.1,8.7-1,.2-2.8,3.7-.8-.8-1.6c-1.2-2.9-.4-3.5,2.5-1.8,1.2,1.2,3.6,1.1,7.1-.4,2.3-2.5,4.7-3.4,7.1-2.3,3.2,1,6.2,1.2,9.1,.4l6.8-10.9-.4-3.3,3.9-4.3c1.7,1.4,3.2,3.4,4.7,5.9,1.6-1.4,4.1-2.5,7.5-3.7,3.5-1.1,7-1.8,10.6-2.1,0-.3-.1-.7-.1-1.1-.6-2.1-1-4.4-1.5-6.8-.9-4.8-1.1-7.6-.6-8.5,.4-.1,.7-.1,1-.1,0-.8-.2-2.2-.6-4.2-.2-1.3-1.2-2.5-3-3.7-2-1.2-3.3-2.4-3.9-3.5-2.3-4.8-5.1-8.3-8.2-10.7-.9,.2-1.9,.6-3.1,1-.4,.2-1.5,.3-3.3,.3-1.3-.7-2.4-.9-3-.8-.7,.3-1.3,.5-1.8,.7-.6,0-1.5-.3-2.8-.9-1.1-.4-2.3-.4-3.7,0-1.1-.4-1.9-.7-2.4-.9-.9-.4-1.5-.8-1.9-1.4-.5-.6-.9-1.6-1.1-2.8-.3-1.2-.7-2.1-1.3-2.7-1.8-2-3.4-3.7-4.5-5-.9-2-1.8-3.3-2.7-4.2-2-1.7-3.3-3.1-3.8-4.2-1-1.1-1.5-2-1.5-2.8l.1-.2c-.8-.8-1.2-1.7-1.4-3-.3-1.9-.5-3-.6-3.4-.2-.5-.7-1.2-1.6-2.2Z"/>
    <text class="cls-8" transform="translate(568.97 294.8)"><tspan x="0" y="0">Hackney</tspan></text>
  </g>
  <g id="Islington">
    <path class="cls-2" d="M498.1,246.6c-.9,.7-1.5,1.1-1.9,1.3-1.6,.2-3.1,.8-4.5,1.6-2.1,1.3-3.6,2.1-4.2,2.4-.8,.4-2.6,1.6-5.6,3.9-.9,.8-1.7,1.4-2.2,1.9-.6,.5-1.2,.8-1.7,1h-.1v.5c0,.8,.2,2,.6,3.5,.7,8.3,1.2,13.1,1.5,14.5,.7,3.4,2.5,6.7,5.2,10,.4,.3,1,1.3,1.6,2.7,.4,1.1,1.2,1.8,2,2.1,.9,.9,2.3,3,4.1,6.3,.4,.7,1.2,1.6,2.3,2.6,1,.9,1.7,1.9,2,2.8,.3,.5,.5,2.3,.9,5.5,.1,2.2,.9,4.5,2.2,7,1.9,3.6,3.1,5.8,3.4,6.6,.9,2.1,1.3,3.2,1.3,3.4,0,2.2-.3,4.9-.9,8.1v2.7c0,2.9,.1,4.4,.3,4.4,.7,0,1.5-.1,2.5-.5,.9-.3,1.7-.5,2.3-.5,1.2,1.1,2.3,2,3.3,2.8,.9,2.4,1.7,4,2.4,4.9,.3,.3,.8,.6,1.3,.7,.2,.1,.3,.3,.3,.6,0,.1-.5,.8-1.6,2.1,2.3,2.6,4.6,3.9,6.8,4,.3,.2,.9,.9,1.8,1.9,1.1-.2,2.3,.3,3.5,1.6,.2,.9,.7,2.5,1.6,4.8,1.1-.6,2.1-1.1,2.9-1.6,2.4-1.3,4.7-2.5,6.9-3.5-.2-1.4-.3-2.5-.3-3.4,0-.4,.7-.6,2.2-.6,.7,0,1.2,.4,1.4,1.5,.4,1.2,.9,2.1,1.6,2.6,.4,.3,.9,.5,1.4,.6s1,.4,1.4,.8c1.6,1.5,3.5,2.3,5.8,2.3h.3c.7-2,1.3-3.8,1.5-5.4,.9-1.9,1.3-3.3,1.3-3.9,0-.3-.2-.4-.8-.5-.5,0-.8-.3-.8-.8,.4-1.4,.7-2.6,.7-3.3v-.3c-.2-.6-.7-1-1.6-1-.5,0-.9,.4-1.2,1.2-.4,.8-.7,1.2-1.2,1.2s-.8-.3-.9-1c-.2-.9-.3-1.5-.5-1.8-1-1.2-2.5-2.1-4.3-2.7-3.6-1.2-5.3-1.9-5.3-1.9-1.5-2.9-2.3-5.4-2.4-7.3,5.3-1.3,10.3-5,14.9-11.2,.9-6.1,1.5-10.6,1.9-13.5,.3-3,.7-4.5,1.1-4.5,1.3,0,3,.2,5.2,.6,3.3,.6,4.9,.6,4.9,.1-1.6-2.6-2.6-4.2-2.9-4.7l-4.2-6.3c-2.1-.3-3.8-.6-4.9-.8-1.9-.4-3.4-.9-4.6-1.6-.3-.3-1.3-2.8-3-7.7-.3-1.2-.4-2.2-.4-2.8,0-.7-.1-1.4-.3-2.2-.3-.8-.5-1.5-.5-2.2,0-.9-.8-1.5-2.3-1.7-1.9,0-3.3-.1-4-.2-1.1-.1-2.9-.8-5.4-2-2.5-4-4.6-6.7-6.3-8.2-2.4-2.5-5-4.8-7.7-6.9-1.7-1.1-2.9-1.9-3.6-2.4-1.3-1-2.1-2-2.6-3.2-.1-2.4-.6-4.2-1.4-5.4-.4-.6-1.8-1.1-4-1.4l-6.6-1.1c-.7,.1-1.3,.4-1.9,.9Z"/>
    <text class="cls-8" transform="translate(504.27 304.75)"><tspan x="0" y="0">Isling</tspan><tspan class="cls-10" x="22.9" y="0">t</tspan><tspan x="26.06" y="0">on</tspan></text>
  </g>
  <g id="City_of_London" data-name="City of London">
    <path class="cls-2" d="M562.1,386.96c.5-.9,1.1-2.1,1.7-3.5,.5-1,1.1-1.9,1.8-2.6,.5-.3,1-.8,1.7-1.3,.5-.5,.8-1.1,.8-1.8,0-1.1-.2-2.1-.6-3-.3-.8-.5-1.8-.5-2.9,0-.3-.4-1.1-1.2-2.5-1-1.7-2.1-3.3-3.4-4.6-.3-.6-.4-1.5-.4-2.6,.2-1.2,.3-1.9,.3-2.4s-.5-.9-1.3-1.1c-.9-.2-1.7-.2-2.6,.1-.2,.2-.6,1.1-1,2.7-.3,.9-.9,1.4-1.7,1.4-1.3-.3-2.3-.4-2.9-.4-.1,0-.3,.1-.6,.1h-.3c-2.3,0-4.2-.8-5.8-2.3-.4-.4-.9-.7-1.4-.8s-1-.3-1.4-.6c-.7-.5-1.2-1.4-1.6-2.6-.2-1.1-.7-1.5-1.4-1.5-1.5,0-2.2,.2-2.2,.6,0,.9,.1,2,.3,3.4-2.2,1-4.5,2.2-6.9,3.5-.8,.5-1.8,1-2.9,1.6-1.3,.6-2.7,1.3-4.4,2.1-3.4-.6-6-.7-8-.3,2.2,3.8,3.3,6.1,3.3,7.1-.6,.2-1.1,.2-1.6,.1-.7-.3-1.2-.3-1.6-.3,.3,1.2,.7,2.6,1.4,4.3,1,2.4,1.4,4.7,1.3,6.8,.6-.1,1.2-.1,1.8-.1l.6-.1,.1,.1c1.8-.1,5.2-.5,10.2-1.1,4.4,.6,9.8,1.2,16.5,1.9,4.6,.7,9.2,1.8,13.6,3.4l.3-.8Zm22.3-57.8"/>
    <text class="cls-8" transform="translate(528.41 371.5)"><tspan x="0" y="0">City of</tspan><tspan class="cls-6" x="-2.88" y="8">L</tspan><tspan x="2.34" y="8">ondon</tspan></text>
  </g>
  <g id="City_of_Westminster" data-name="City of Westminster">
    <path class="cls-2" d="M396.3,351c.8,.3,1.3,1,1.6,2,.4,1.3,.8,2.2,1.2,2.7,.4,.5,1.1,1.2,2,2,.8,.8,1.3,1.6,1.6,2.4-.8,.2-1.6,1.1-2.3,2.3,0,.6,1.1,2.3,3.2,5.1,2,2.7,3,5.3,2.9,7.7,1.8-.3,3.1-.5,3.8-.5,1.3,0,2.2,1.3,2.6,3.8,.6,3.2,1.1,5.1,1.7,5.8,0,0,2.2-.6,6.3-1.7,0,1.1,.8,3.9,2.5,8.2,1.8,5,2.9,8.4,3.3,10.3,3,.1,4.5,.2,4.5,.1l1.2,7.5c1.6,0,4.5-.3,8.7-.7,1.3,0,4.1-.3,8.5-1,0,.1,1.3-1.2,3.9-3.7,2.9-2.7,4.7-4.3,5.6-4.8,2.8,12.4,4.1,18.7,4.1,19-.2,.8-.5,1.4-.6,1.6,0,2.4,1.4,5,4.3,7.8,2.9,2.9,4.5,6,4.8,9.2h.8c1.7-.1,4.7,.1,8.8,.6,3.4,.4,6,.4,7.8,0,2.8-.7,5.3-1.9,7.5-3.7,1.1-.9,2.1-2,3.1-3.3,2.7-3.3,4.4-7.4,5-12,1.6-10.4,2.4-16.3,2.4-17.9,0-4.7,1.1-8.5,3.5-11.5,2.1-2.8,4.9-4.3,8.4-4.7,.1-2.1-.3-4.4-1.3-6.8-.7-1.7-1.1-3.1-1.4-4.3h-.1c-.1,.1-.3-.3-.5-.9v-.1c0-.6-.2-.9-.5-.9-.7,0-1.7,.5-3,1.3-1.3,.9-2.3,1.3-3.1,1.3-2.4-.2-4.1-.3-5-.3-2.4,2-4.7,3.1-6.9,3.4l-2.3-8.1c-4-.4-7.3-2.3-10-5.7-1.4-3.3-3-5.6-4.6-6.8-1.7-1.4-4.1-1.9-6.9-1.5l-7.6-28.1-8.2,3.2-2.1-3.1-5.8,3.5-5.2-6.1-2.4,2.1-1.2-1-3,.7-.5-2.8c-6-2.9-12.2,.8-18.7,10.9l-3-3.7c-2.3,2.7-2.7,4.7-1.2,6.1l-5.6,12.1c-.7-4.6-3.9-8.6-9.6-11.9l-14.4,4.6-1.1,7.1c3.5,1,7.6,2.1,12.5,3.2Z"/>
    <text class="cls-8" transform="translate(444.18 373.9)"><tspan x="0" y="0">City of </tspan><tspan class="cls-11" x="-13.07" y="10">W</tspan><tspan x="-3.82" y="10">estmins</tspan><tspan class="cls-10" x="31.04" y="10">t</tspan><tspan x="34.2" y="10">er</tspan></text>
  </g>
  <g id="Camden">
    <path class="cls-2" d="M412.4,277c-1.2,.2-2.1,.5-2.7,.7-.7,.2-1.4,.9-2.1,2-.7,1.2-1.6,2-2.7,2.3-1.2,1.3-1.8,3-1.8,5.2,0,.6-1.1,1.1-3.4,1.6-1.9,.4-3.4,.6-4.7,.6-.9,0-1.7-.5-2.5-1.5-.8-.9-1.7-1.4-2.6-1.4-2.3,1.8-4.3,3.2-5.8,4.2,.2,.3,.4,.6,.6,1,.8,1.5,1.6,2.6,2.2,3.4,.9,.9,2.3,2.3,4.4,4.2,.8,1,1.8,2.5,3,4.4,1.1,1.5,2.3,2.8,3.6,3.8l17.8,22.3,3,3.7c6.5-10.1,12.7-13.8,18.7-10.9l.5,2.8,3-.7,1.2,1,2.4-2.1,5.2,6.1,5.8-3.5,2.1,3.1,8.2-3.2,7.6,28.1c2.8-.4,5.2,.1,6.9,1.5,1.6,1.2,3.2,3.5,4.6,6.8,2.7,3.4,6,5.3,10,5.7l2.3,8.1c2.2-.3,4.5-1.4,6.9-3.4,.9,0,2.6,.1,5,.3,.8,0,1.8-.4,3.1-1.3,1.3-.8,2.3-1.3,3-1.3,.3,0,.5,.3,.5,.9,.3,.3,.5,.6,.6,1,.4,0,.9,0,1.6,.3,.5,.1,1,.1,1.6-.1,0-1-1.1-3.3-3.3-7.1,2-.4,4.6-.3,8,.3,1.7-.8,3.1-1.5,4.4-2.1-.9-2.3-1.4-3.9-1.6-4.8-1.2-1.3-2.4-1.8-3.5-1.6-.9-1-1.5-1.7-1.8-1.9-2.2-.1-4.5-1.4-6.8-4,1.1-1.3,1.6-2,1.6-2.1,0-.3-.1-.5-.3-.6-.5-.1-1-.4-1.3-.7-.7-.9-1.5-2.5-2.4-4.9-1-.8-2.1-1.7-3.3-2.8-.6,0-1.4,.2-2.3,.5-1,.4-1.8,.5-2.5,.5-.2,0-.3-1.5-.3-4.4v-2.7c.6-3.2,.9-5.9,.9-8.1,0-.2-.4-1.3-1.3-3.4-.3-.8-1.5-3-3.4-6.6-1.3-2.5-2.1-4.8-2.2-7-.4-3.2-.6-5-.9-5.5-.3-.9-1-1.9-2-2.8-1.1-1-1.9-1.9-2.3-2.6-1.8-3.3-3.2-5.4-4.1-6.3-.8-.3-1.6-1-2-2.1-.6-1.4-1.2-2.4-1.6-2.7-2.7-3.3-4.5-6.6-5.2-10-.3-1.4-.8-6.2-1.5-14.5-.4-1.5-.6-2.7-.6-3.5l-.7-.4c-2.3-1.6-5-2.8-7.9-3.3-1.2-1-1.8-1.5-1.8-1.5-1.2-.2-2.5-.3-4-.3-3.1-.4-5.5-.6-7.1-.6-.6,0-1.2-.2-1.8-.5-.6-.4-1.1-.5-1.7-.5-1.8,.2-3.1,.3-3.8,.3-2.4-.6-4.4-.8-6.4-.8-1,0-2,.4-2.9,.9-.7,.4-1.4,1-1.9,1.7-.9,1.1-1.9,3-3.1,5.7-2.2-1.2-4-1.8-5.5-1.8-1,0-1.8,.3-2.5,1-.7,.8-1.4,1.6-2,2.1-5.3,4.6-8.1,7.1-8.4,7.3-.4,.8-.7,1.9-.9,3.5-.3,1.6-.6,2.8-1,3.5-.4,.7-1.1,1.2-2.1,1.5Z"/>
    <text class="cls-8" transform="translate(432.05 304.75)"><tspan x="0" y="0">Camden</tspan></text>
  </g>
  <g id="Barnet">
    <path class="cls-2" d="M423.8,68.5c-4.1-1.8-7.2-3-9.4-3.7,1-3.8,2.4-7.8,4.2-12.1l-7.6,2.2-4.6,7.4-6-3.3,1.5-5.2-1.8-.6-2.7,2.6-1.9-5.8-3.2-.4,1.1,5.5-3.1,.1-2.2-2-3.6,4.4-1.6-1.3-2.4-.5,4.4,9.8-12.6,7.8-1.8-.9-8.5,4.7-3.3-5.8-30.8,11.6c.2,6-2,14.5-6.7,25.5-1.1,1.2-2.4,2.3-3.7,3.4-1.2-1.9-2.8-4.3-4.9-7l-3.7-.5-3.9,2.8-.7,2.7c-1.3,.7-3.1,1.2-5.5,1.5l-1.9,7.2c-2.8-.2-7.9,1.2-15.4,4.2-3.7-.7-6.6,0-8.9,2.2h-10.1l-3.1-2.7c-.3-.1-.6-.2-1-.3l-.2,2c-.2,2.7,.3,5.4,1.6,8.2,.2,.4,1.7,2.9,4.3,7.3,.6,1,1.7,2.1,3.4,3.5,1.8,1.5,2.9,2.5,3.3,3.2,1.2,1.6,2.6,4,4.2,7.3,2.8,5.2,5.9,9.4,9.2,12.6,3.5,3.3,6.6,7,9.5,11.1,2.9,4,8.1,10.9,15.8,20.8,5.6,7.2,12.6,15.9,20.9,26.3l4.5,6c-5.4,2.1-8.2,5.6-8.2,10.3,0,2.5,.5,5.1,1.3,7.9,1.2,3.8,1.9,6.4,2.2,7.8,.9,4.5,2.4,6.8,4.6,6.8,1.6,0,3.1-1.2,4.4-3.4,1.4-2.3,2.9-3.4,4.4-3.4,4.3,0,8.3,1,12.1,3.1,2.4,1.3,5.9,3.9,10.4,7.7,2.2,3.8,5.2,8.1,8.9,12.6,1,1.3,2.7,2.8,5,4.3,.7,.7,1.5,2.2,2.6,4.4,.4,.4,.9,1.3,1.5,2.3,1.5-1,3.5-2.4,5.8-4.2,.9,0,1.8,.5,2.6,1.4,.8,1,1.6,1.5,2.5,1.5,1.3,0,2.8-.2,4.7-.6,2.3-.5,3.4-1,3.4-1.6,0-2.2,.6-3.9,1.8-5.2,1.1-.3,2-1.1,2.7-2.3,.7-1.1,1.4-1.8,2.1-2,.6-.2,1.5-.5,2.7-.7,1-.3,1.7-.8,2.1-1.5,.4-.7,.7-1.9,1-3.5,.2-1.6,.5-2.7,.9-3.5,.3-.2,3.1-2.7,8.4-7.3,.6-.5,1.3-1.3,2-2.1,.7-.7,1.5-1,2.5-1,1.5,0,3.3,.6,5.5,1.8,1.2-2.7,2.2-4.6,3.1-5.7,.5-.7,1.2-1.3,1.9-1.7,.1-.7,.6-2.2,1.3-4.4,1.8-4.5,2.6-6.8,2.6-6.8,.7-2.3,.8-4.7,.3-7.3-.1-.8-.1-1.7,0-2.8,.2-1.8,2.9-3.3,7.9-4.5,1.6-.3,2.5-.5,2.6-.5,.7-.3,1.1-.9,1.1-1.8,0-.2-.4-1.1-1.1-2.7-.9-1.9-1.3-4.2-1.3-7l.4-2.7-2.5-4.2c-1.9-1.5-2.4-4.1-1.5-7.7,.4-.9,1.8-4.1,4.1-9.9,.3-.5,.5-1.7,.9-3.3,.3-1.3,.7-2.3,1.3-3.1,3,1.8,4.5,4.5,4.3,8.2,0,1.2,.3,2.7,.9,4.7,.5,1.9,.9,2.8,1.1,2.9,1.9-.1,4.4-1.7,7.8-4.7,2.3-2,3.5-3.1,3.5-3.1,1-1.3,1.2-3.1,.6-5.3-1.3-6.2-1.9-9.6-1.9-10.4,2.7-2.2,4.8-3.4,6.1-3.7,.2,0,.3,0,.4-.1-.8-1.7-2-3.6-3.5-5.8-1.3-2-2.3-3.6-2.9-4.9,0-.3,.3-.6,.9-.8,.7-.3,1-.5,1.1-.7,.2-.4-.1-1.1-.7-2.2,.9-1.3,2.6-3.3,5.1-5.9,1.9-2.3,3.2-4.6,4-6.8,.5-1.3,1.2-3.9,2.1-7.7,.3-1.3,1.4-3.1,3.2-5.5,1.7-2.1,2.6-3.9,2.6-5.4-.6-.4-2.9-1.6-7.1-3.6-3.4-1.6-5.9-3.4-7.5-5.5-2.1-2.8-3.8-4.7-4.8-5.7-1.4-1.2-3.5-2.5-6.3-3.9-2.2-2.7-4.7-9.4-7.2-20.2-1.1-4.9-4.1-8.5-9-11.1-2.7-1.3-7.8-3-15.4-4.9-3.2-.7-6.3-1.8-9.5-3.2Z"/>
    <text class="cls-8" transform="translate(367.68 172.3)"><tspan x="0" y="0">Barnet</tspan></text>
  </g>
  <g id="Brent">
    <path class="cls-2" d="M343.6,256.3c-1.5,0-3,1.1-4.4,3.4-1.3,2.2-2.8,3.4-4.4,3.4-2.2,0-3.7-2.3-4.6-6.8-.3-1.4-1-4-2.2-7.8-.8-2.8-1.3-5.4-1.3-7.9,0-4.7,2.8-8.2,8.2-10.3l-4.5-6c-8.3-10.4-15.3-19.1-20.9-26.3-2,1-4.6,2.7-7.7,5-2.3,1.7-4.8,3.1-7.5,4.2-.9,.3-3.7,.9-8.4,1.8-3.5,.7-6.1,1.8-7.7,3.3,.5,.8,1.2,1.4,2.3,1.9,.6,.3,1.5,.8,2.7,1.4,2.3,1.4,4,3.3,5.1,5.7,.3,3.6,1.1,6.7,2.5,9.3-.9,0-2-.1-3.6-.4-5.8-1.5-10.9-2.3-15.5-2.6-3.1-.4-5.3-.5-6.7-.6-2.1,0-4.3,.4-6.3,1.1-1.2,.3-3.2,1.7-6.1,4.2-3.7,3.3-6.4,5.7-8.3,7.3-.8,.7-3.3,1.8-7.3,3.3-2.7,1-4.1,2.6-4.1,4.9s.9,5.3,2.7,8.4c2,3.5,3.1,6.1,3.3,7.9-1.3,1.4-2.6,2.5-3.8,3.2-2.2,1.5-3.4,2.3-3.6,2.4,0,.3,.2,1.6,.5,3.9,.4,1.9,.4,3.4,.1,4.6-1.8,1-3.6,3.1-5,6.3-2,4.4-3.2,7-3.8,7.7,3.4,.1,6.9,1.1,10.4,3,6.1,3.1,9.7,4.9,10.8,5.3,3.7,1.3,7.2,3.7,10.5,7.2,1,.9,2.4,2,4.3,3.4,1.4,1.2,2.1,2.7,2.1,4.3,0,.5-.2,1.3-.6,2.1,0,1.7,.6,3.8,1.8,6.3,1.1,2.5,1.7,4.6,1.7,6.2v5c0,.7-.3,1.4-.7,2.3-.5,.9-.8,1.7-.8,2.4,0,.6,.5,1.1,1.4,1.2,.6,.1,1.4,.2,2.6,.3,.5,0,1.2,.3,2.1,.8,.8,.4,1.5,.6,2.2,.6,1,0,1.9-1,2.7-2.9,.7-2,1.6-3,2.6-3,.9,0,1.9,.1,3.2,.5h3.3c1.9,0,3.9-1.3,6-3.8,2.2-2.6,4.2-3.9,6-3.9,.9,0,1.7,.5,2.3,1.4,.4,.5,.9,1.4,1.5,2.6,1.5,2.2,2.2,3.8,2.2,4.7,0,1.7-1.3,2.6-4,2.6-.5,0-1.2-.3-2-.8-.7-.6-1.4-.8-2-.8-1.6,0-3.1,.3-4.3,1-1.3,.8-2,2-2,3.3,0,.8,.4,1.5,1.2,2,.5,.3,1.3,.7,2.4,1.3,.7,.4,1.5,1,2.4,1.9,.9,.6,1.8,1,2.7,1,2,0,4.2-.4,6.3-1.2,1.3-.5,3.3-1.2,6.2-2.3,.4-.1,2.2-.2,5.5-.3,2-.1,3.3-.9,3.9-2.2,1-2.2,2.5-4.7,4.6-7.5,.6,.5,1.5,1.2,2.5,2l1.4-.3c.6,.1,1.3,.4,2.3,.9,.9,.5,1.6,.7,2.3,.7,.4,0,1-.2,1.5-.8,.6-.5,1.1-.8,1.6-.8,1.4,0,2.9,.5,4.3,1.6,.8,.7,2.1,1.7,3.9,3.2,.2-.1,.4-.2,.6-.3,4.1,.9,9.2,1.7,15.2,2.2,3.5,.1,6.5,.2,9.1,.2,.2-.1,.4-.3,.6-.4,1-.6,2.8-.6,5.4-.2,3.2,.6,7,1.7,11.3,3.6l1.1-7.1,14.4-4.6c5.7,3.3,8.9,7.3,9.6,11.9l5.6-12.1c-1.5-1.4-1.1-3.4,1.2-6.1l-17.8-22.3c-1.3-1-2.5-2.3-3.6-3.8-1.2-1.9-2.2-3.4-3-4.4-2.1-1.9-3.5-3.3-4.4-4.2-.6-.8-1.4-1.9-2.2-3.4-.2-.4-.4-.7-.6-1-.6-1-1.1-1.9-1.5-2.3-1.1-2.2-1.9-3.7-2.6-4.4-2.3-1.5-4-3-5-4.3-3.7-4.5-6.7-8.8-8.9-12.6-4.5-3.8-8-6.4-10.4-7.7-3.8-2.1-7.8-3.1-12.1-3.1Z"/>
    <text class="cls-8" transform="translate(304.5 297.15)"><tspan x="0" y="0">B</tspan><tspan class="cls-13" x="6.62" y="0">r</tspan><tspan x="9.94" y="0">e</tspan><tspan class="cls-4" x="15.51" y="0">n</tspan><tspan x="21.05" y="0">t</tspan></text>
  </g>
  <g id="Harrow">
    <path class="cls-2" d="M267.5,143c-1.7-1.4-2.8-2.5-3.4-3.5-2.6-4.4-4.1-6.9-4.3-7.3-1.3-2.8-1.8-5.5-1.6-8.2l.2-2c-5.4-2.2-10.3-4.6-14.7-7.1l-5.2,6.4c-5,.6-10.2,3.7-15.7,9.5-2,2.3-3.9,5.3-5.8,9.1l-4.3-2.2-5.7,4c-2.6,1.9-8.5,4.3-17.6,7.3l-10.7,10.6-9.2,3.5c-2.2,1.1-4.9,2.2-8.3,3.2-2,1.1-4.1,2-6.1,2.5-4.6,.5-9.9,2.2-15.9,5.2-2.2,.8-4.7,1.2-7.6,1,.6,2.2,1.3,4.6,2.2,7.4,.6,2.2,.9,4.7,.9,7.3v4.5c0,2.6,1.2,6.3,3.6,11.2,.9,1.8,2,3.8,3.2,6,.8,1.4,1.4,3.1,1.6,4.9,.3,2.1,.7,3.7,1.2,4.7,.6,1.4,1.7,3.8,3.3,7.3,1.4,3.2,2.2,6,2.4,8.3,0,2.7,.5,5.5,1.6,8.5,1.5,4.2,2.4,7,2.6,8.3,1.2,5.2,3.9,13.6,8.3,25.3,4.5,12,6.8,18.4,7,19l.7,1.5c.9-.3,1.7-.5,2.5-.7,6.2-.9,10.5-1.8,13.2-2.6,.8-.2,2-1.4,3.5-3.4,1.4-2,2.6-3.1,3.6-3.2,.8-.1,2.8-.8,6-2.1,3-1.1,5.2-1.8,6.4-1.8,1.1-.1,2.5,.4,4.3,1.6,2.1,1.4,3.7,2.2,4.5,2.5,2.2,.7,5,1.6,8.3,2.7h.8c.6-.7,1.8-3.3,3.8-7.7,1.4-3.2,3.2-5.3,5-6.3,.3-1.2,.3-2.7-.1-4.6-.3-2.3-.5-3.6-.5-3.9,.2-.1,1.4-.9,3.6-2.4,1.2-.7,2.5-1.8,3.8-3.2-.2-1.8-1.3-4.4-3.3-7.9-1.8-3.1-2.7-6-2.7-8.4s1.4-3.9,4.1-4.9c4-1.5,6.5-2.6,7.3-3.3,1.9-1.6,4.6-4,8.3-7.3,2.9-2.5,4.9-3.9,6.1-4.2,2-.7,4.2-1.1,6.3-1.1,1.4,.1,3.6,.2,6.7,.6,4.6,.3,9.7,1.1,15.5,2.6,1.6,.3,2.7,.4,3.6,.4-1.4-2.6-2.2-5.7-2.5-9.3-1.1-2.4-2.8-4.3-5.1-5.7-1.2-.6-2.1-1.1-2.7-1.4-1.1-.5-1.8-1.1-2.3-1.9,1.6-1.5,4.2-2.6,7.7-3.3,4.7-.9,7.5-1.5,8.4-1.8,2.7-1.1,5.2-2.5,7.5-4.2,3.1-2.3,5.7-4,7.7-5-7.7-9.9-12.9-16.8-15.8-20.8-2.9-4.1-6-7.8-9.5-11.1-3.3-3.2-6.4-7.4-9.2-12.6-1.6-3.3-3-5.7-4.2-7.3-.4-.7-1.5-1.7-3.3-3.2Z"/>
    <text class="cls-8" transform="translate(195.9 212.4)"><tspan x="0" y="0">Har</tspan><tspan class="cls-13" x="16.37" y="0">r</tspan><tspan class="cls-10" x="19.69" y="0">o</tspan><tspan x="25.23" y="0">w</tspan></text>
  </g>
  <g id="Ealing">
    <path class="cls-2" d="M260.8,317.5c.4-.8,.6-1.6,.6-2.1,0-1.6-.7-3.1-2.1-4.3-1.9-1.4-3.3-2.5-4.3-3.4-3.3-3.5-6.8-5.9-10.5-7.2-1.1-.4-4.7-2.2-10.8-5.3-3.5-1.9-7-2.9-10.4-3h-.8c-3.3-1.1-6.1-2-8.3-2.7-.8-.3-2.4-1.1-4.5-2.5-1.8-1.2-3.2-1.7-4.3-1.6-1.2,0-3.4,.7-6.4,1.8-3.2,1.3-5.2,2-6,2.1-1,.1-2.2,1.2-3.6,3.2-1.5,2-2.7,3.2-3.5,3.4-2.7,.8-7,1.7-13.2,2.6-.8,.2-1.6,.4-2.5,.7-1.8,.5-3.5,1.3-5.3,2.5-3.3,2-5.8,3.4-7.6,4-1.4,.6-3.1,1.5-5.2,2.6-1.9,1.2-3.7,2-5.3,2.6-1.7,.3-3,.4-3.8,.5-1.4,.2-2.2,.8-2.2,1.6,0,.4,.1,.9,.2,1.5,.2,0,.5,.2,.9,.4h4.2c.1,1.6,.5,4,1.1,7.4-4,1-7.5,1.9-10.7,2.8-2.6,.7-6.5,1.5-11.6,2.3-4.7,.8-7.7,1.1-9,1.1-.1,.4,.3,1.4,1,3.3,.7,1.9,1.3,3,1.6,3.4,.3,.3,.9,.5,1.8,.7,.8,.1,1.6,.6,2.3,1.4,1.4,2.1,2.6,3.4,3.6,4.1,1.1,.9,2.5,1.3,4.3,1.3,.9,0,2.8,.3,5.6,1.1,1.6,0,3.3,.2,5.2,.6,1,.3,2.8,.6,5.1,1.2,.6,0,2.5,.6,5.8,1.6,2.5,.6,6.4,1.6,11.6,3,4.4,.6,7.2,1.3,8.3,2,.6,.4,.8,1.2,.8,2.6,0,.8-.1,1.9-.2,3.4-2.2,6.8-5.6,12.8-9.9,18-.8,1.1-2.6,2.4-5.3,3.9-2,1-2.9,2.5-2.9,4.5-.3,1.6-.7,3.4-1.3,5.1-.7,2-1.2,3.8-1.5,5.6-1.3,1.5-3.6,3.2-6.9,5.1-3.3,1.9-5.6,3.5-6.9,4.9-1,1.2-2.2,3.4-3.6,6.8,3.3,1.4,8.4,3.4,15.3,6.1,3.9,1.2,6.8,2.3,8.7,3.2l3.9-.2c1.4,0,2.8-.5,4.5-1.4,1.7-1.1,3-1.8,3.8-2.2,.8-.5,1.7,0,2.6,1.4,.1,.1,.7,1.4,1.9,3.6,.6,.9,1.3,2.1,2,3.9,.6,1.6,1.3,2.9,2.2,3.8,1.8-.4,3.6-1.5,5.2-3.1,.6-.7,2-2.5,4.3-5.4,2.7-3.5,5.2-5.8,7.7-6.9,1.4-.5,4.6-1.4,9.8-2.6,1.9,0,3.7,.8,5.2,2.2,1.5,1.5,3.2,2.2,5.1,2.2h11.1c.6,0,1.5,.2,2.5,.7,1,.4,1.8,.6,2.5,.6,1,0,2.4-.3,4.1-.8,1.6-.6,3-.9,4.1-.9,1,0,2,.5,3.2,1.6s2.3,1.7,3.3,1.7c.8,0,1.6-.5,2.3-1.4,.9-1.4,1.6-2.1,1.9-2.4,.6,.9,1.1,2.1,1.6,3.7,.5,1.5,1,2.8,1.5,3.6,1.1,.1,3.4-.4,6.9-1.6l2.6-.7c.8-.4,1.3-1,1.3-1.7-.6-1.4-.9-2.6-.9-3.5,0-.8,.3-1.2,.9-1.2,1.1,0,2.2,.9,3.2,2.7,1.1,1.7,2.2,2.6,3.2,2.6,.6,0,1.4,0,2.2-.2,.1-1.6,.1-2.7,0-3.1-.7-1.5-1.3-2.7-1.6-3.4-.5-1.2-.8-2.4-.8-3.6,2.3-2,4.9-3.4,7.8-4.1,2.1,0,4.9,.3,8.3,.9,1.2,0,2.7-.6,4.3-2,1.6-1.3,3.1-2,4.4-2,.4,1.7,1.6,3.7,3.5,6,1.1,1.3,2.9,3.3,5.4,6,2.2,2.2,3.3,3.4,3.5,3.5,.9,.7,2.1,1,3.7,1,.2,0,.5-.1,.8-.4h7.3c1.2,0,2.7-.3,4.6-.7,.6,0,.9-.1,1-.4,0-.1,.4,.1,1.3,.5l1.8,.6,1.7-5.4c.1-.2,.4-1.5,.8-4,.4-1.7,.8-2.8,1.4-3.2v-.1l-3.5-8.3,4.4-.5,2.5,1.4,6.9-1.6-1.6-4.9-5.6-24.1c-3-12.7-1.3-21,5.2-24.9-1.8-1.5-3.1-2.5-3.9-3.2-1.4-1.1-2.9-1.6-4.3-1.6-.5,0-1,.3-1.6,.8-.5,.6-1.1,.8-1.5,.8-.7,0-1.4-.2-2.3-.7-1-.5-1.7-.8-2.3-.9l-1.4,.3c-1-.8-1.9-1.5-2.5-2-2.1,2.8-3.6,5.3-4.6,7.5-.6,1.3-1.9,2.1-3.9,2.2-3.3,.1-5.1,.2-5.5,.3-2.9,1.1-4.9,1.8-6.2,2.3-2.1,.8-4.3,1.2-6.3,1.2-.9,0-1.8-.4-2.7-1-.9-.9-1.7-1.5-2.4-1.9-1.1-.6-1.9-1-2.4-1.3-.8-.5-1.2-1.2-1.2-2,0-1.3,.7-2.5,2-3.3,1.2-.7,2.7-1,4.3-1,.6,0,1.3,.2,2,.8,.8,.5,1.5,.8,2,.8,2.7,0,4-.9,4-2.6,0-.9-.7-2.5-2.2-4.7-.6-1.2-1.1-2.1-1.5-2.6-.6-.9-1.4-1.4-2.3-1.4-1.8,0-3.8,1.3-6,3.9-2.1,2.5-4.1,3.8-6,3.8h-3.3c-1.3-.4-2.3-.5-3.2-.5-1,0-1.9,1-2.6,3-.8,1.9-1.7,2.9-2.7,2.9-.7,0-1.4-.2-2.2-.6-.9-.5-1.6-.8-2.1-.8-1.2-.1-2-.2-2.6-.3-.9-.1-1.4-.6-1.4-1.2,0-.7,.3-1.5,.8-2.4,.4-.9,.7-1.6,.7-2.3v-5c0-1.6-.6-3.7-1.7-6.2-1.2-2.5-1.8-4.6-1.8-6.3Z"/>
    <text class="cls-8" transform="translate(214.36 368.8)"><tspan class="cls-9" x="0" y="0">E</tspan><tspan x="5.93" y="0">aling</tspan></text>
  </g>
  <g id="Hillingdon">
    <path class="cls-2" d="M109,168.5c-6.4-.1-12.3-1.9-17.7-5.3-4.6-1.3-9.4-1.1-14.5,.5-1.2,1.6-2.6,4.7-4.1,9.3l-9.6,5.2-6.3-3.4c-3.6-1.7-7.3-4.3-11.1-7.7-2.4-3.5-6-7.1-10.8-10.7-5-2.9-9.2-6-12.6-9.3-1.1-2.8-3.2-5.1-6.2-6.9-2.5-.6-4.9,0-7.4,1.5-1.7,1.6-2,3.2-1,4.9,1.6,.7,2.2,2,1.7,3.9-1.4,1.9-2.1,4.5-2.2,7.9-.9,2.3,.8,4.1,5.3,5.2,1.1,1.2,1.2,3,.3,5.5-1.5,1.9-2.5,6-3,12.1-1.5,3.2-1.4,6.5,.4,10.2l2.7,7.8c.7,2.4-.3,3.3-2.7,2.5-1.7-.3-2.7,.8-2.8,3.3-.2,1.9,.6,4.1,2.3,6.3l.8,7.5-.9,1.8,1.1,1.1,.2,1.5,1.2,.4,.6,2.4,3.6,7.2,.1,2.8c-.1,1.6,1.2,2.9,3.9,3.9,2.3,1,3.3,3.4,3,7.1-.2,2.7,.2,4.8,1.2,6.3,.7,1.4,2,1.8,4,1.3l2,2-1.4,1.8c0,2.8,.5,5.1,1.5,7.1l-.2,8.4,2.6,7.7,2.8,4.6,4,2,.1,5.9-7.4,12.8-3.4,1.2-3.3,7.9-3.7,.2c0,3.4-.6,7-1.8,10.6-1,.9-1.9,2.1-2.7,3.6-.2,1.8,.2,4.1,1.4,6.8,2.4,1.9,3.9,3.4,4.4,4.5-.5,1.5-.1,3.1,1.1,5.1l1.3,4.9c.2,2.2,0,3.7-.6,4.3-1.5,1-1.9,2.2-1.4,3.8l.4,8.4c.6,1.4,.7,2.7,.3,3.9l-2,3.6c-.2,1.9,0,3.4,.7,4.5l2.2,3.6c-.2,1.1,.1,2.7,.9,4.8,2.4,.1,5.1,3.3,8.4,9.7l-3.1,4.2,.3,2.3-1.4,2.1,.5,2.1c-3.1,1.7-4.6,4-4.7,6.8,.9,2.8,.3,6-1.7,9.6l-4.7,1.6-.5,4.9-5.3,4.1,.4,6.1c-3.3,4.2-5.6,10-6.9,17.5-.1,5.1-2.3,12.2-6.7,21.6l2.3-1.2c6-.7,11.5,1.5,16.7,6.5l2.7,3.6,4.5,3.4c1.9,1,6,1.4,12.4,1.2,2.9-.5,5.1,.2,6.4,2,1.8,1.8,4.2,3.3,7.4,4.5,2.1-.1,4.6,.3,7.2,1,2.2-.3,4.7,.5,7.6,2.2v.5l15.4,5.2c1.4,.2,2.8-.3,4.1-1.4,.5-.5,1.1-1.5,1.9-3.1,.8-1.6,1.5-2.6,2-3,.5-.4,2.1-.6,4.7-.6l1-4.7c1.1-1.5,1.8-2.6,2.3-3.3,1.9-2.6,4.3-4.6,7.1-6.2,4.9-3.4,9-6,12.3-7.5,2.8-1,4.8-1.8,6-2.4,1.7-.8,2.7-1.9,3-3.3v-.9c-.2-1.2-1-2.6-2.4-4.1-1.3-1.6-2-3-2-4.1,.3-.6,.4-1,.4-1.4,0-4.2-1.2-9.1-3.7-14.7,2.4-4.1,4-7.3,4.8-9.4l1.2-6.2c0-1.8,.4-3.7,1.3-5.9,.8-2.1,1.2-4.1,1.2-5.9,0-2.4,.3-4.7,.9-6.9,.7-2.6,1.6-3.9,2.8-3.9,.5,.3,1.2,.6,2,.9,1.4-3.4,2.6-5.6,3.6-6.8,1.3-1.4,3.6-3,6.9-4.9,3.3-1.9,5.6-3.6,6.9-5.1,.3-1.8,.8-3.6,1.5-5.6,.6-1.7,1-3.5,1.3-5.1,0-2,.9-3.5,2.9-4.5,2.7-1.5,4.5-2.8,5.3-3.9,4.3-5.2,7.7-11.2,9.9-18,.1-1.5,.2-2.6,.2-3.4,0-1.4-.2-2.2-.8-2.6-1.1-.7-3.9-1.4-8.3-2-5.2-1.4-9.1-2.4-11.6-3-3.3-1-5.2-1.6-5.8-1.6-2.3-.6-4.1-.9-5.1-1.2-1.9-.4-3.6-.6-5.2-.6-2.8-.8-4.7-1.1-5.6-1.1-1.8,0-3.2-.4-4.3-1.3-1-.7-2.2-2-3.6-4.1-.7-.8-1.5-1.3-2.3-1.4-.9-.2-1.5-.4-1.8-.7-.3-.4-.9-1.5-1.6-3.4-.7-1.9-1.1-2.9-1-3.3,1.3,0,4.3-.3,9-1.1,5.1-.8,9-1.6,11.6-2.3,3.2-.9,6.7-1.8,10.7-2.8-.6-3.4-1-5.8-1.1-7.4h-4.2c-.4-.2-.7-.4-.9-.4-.1-.6-.2-1.1-.2-1.5,0-.8,.8-1.4,2.2-1.6,.8-.1,2.1-.2,3.8-.5,1.6-.6,3.4-1.4,5.3-2.6,2.1-1.1,3.8-2,5.2-2.6,1.8-.6,4.3-2,7.6-4,1.8-1.2,3.5-2,5.3-2.5l-.7-1.5c-.2-.6-2.5-7-7-19-4.4-11.7-7.1-20.1-8.3-25.3-.2-1.3-1.1-4.1-2.6-8.3-1.1-3-1.6-5.8-1.6-8.5-.2-2.3-1-5.1-2.4-8.3-1.6-3.5-2.7-5.9-3.3-7.3-.5-1-.9-2.6-1.2-4.7-.2-1.8-.8-3.5-1.6-4.9-1.2-2.2-2.3-4.2-3.2-6-2.4-4.9-3.6-8.6-3.6-11.2v-4.5c0-2.6-.3-5.1-.9-7.3-.9-2.8-1.6-5.2-2.2-7.4-2.7-.1-5.7-.8-8.9-1.9-4.3-2.8-8.8-4.3-13.7-4.6Z"/>
    <text class="cls-8" transform="translate(69.15 288.35)"><tspan x="0" y="0">Hillingdon</tspan></text>
  </g>
  <g id="Hammersmith">
    <path class="cls-2" d="M342.2,342.4c-.2,.1-.4,.2-.6,.3-6.5,3.9-8.2,12.2-5.2,24.9l5.6,24.1,1.6,4.9-6.9,1.6-2.5-1.4-4.4,.5,3.5,8.3v.1c0-.1,.1-.1,.2-.2,.6,1.4,1.9,3,3.9,4.6,1.9,1.5,3.2,2.3,3.8,2.3l4.7-1.1,1,3.9c0,1.2-.2,2.6-.6,4.2-.4,1.6-.6,3-.6,4.1,0,3,.8,5.3,2.4,7,.5-.4,1-.7,1.5-1,1-.5,3.1-1.2,6-1.9,8.1-1.9,13.7,1.9,16.8,11.4,.7,2.1,1,5.4,1.1,10.1,0,4.2,.7,7.6,2.1,10.3,.7,1.4,1.5,2.7,2.2,3.9,1.8,2.9,3.8,5.2,5.9,7,3.1,2.6,7.1,4.7,12,6.4,1.7,.5,3.9,1.3,6.5,2.3,2.3,.8,4.5,1.2,6.7,1.2h4.2c8.5,0,14.4-4,17.6-12,.8-1.9,1.6-4.6,2.5-8.1,.8-3.4,1.6-6,2.5-8.1,.2-.4,.4-.8,.6-1.2-3.3,.6-6.3,.9-8.8,.9-.3,0-.4,.1-.5,.4,0,.2-.1,.2-.3,.2-1.6-2.8-4.4-6.7-8.3-11.8-4.8-5.3-8.7-9.8-11.8-13.3-.8-1-2.3-3.1-4.5-6.4-1.6-2.3-3.3-4.2-5.3-5.7-2.8-2.1-4.7-3.9-5.8-5.4-1-1.2-2.4-3.6-4.2-7.4-2-3.7-2.9-5.9-2.9-6.6,.3-4.1,.1-7.3-.4-9.8-.7-3-2.1-5.6-4.3-7.8-4.7-4.7-7.1-7.2-7.3-7.3-1.9-2.5-2.8-5.6-2.8-9.2,.2-5.1,.3-9.1,.3-11.9,0-1-.3-1.8-.7-2.7-.7-.9-1.2-1.8-1.6-2.6h0c-.2,.1-.4,.3-.6,.4-2.6,0-5.6-.1-9.1-.2-6-.5-11.1-1.3-15.2-2.2Z"/>
    <text class="cls-8" transform="translate(338.81 407.25)"><tspan x="0" y="0">Hammersmith</tspan><tspan x="11.12" y="10">&amp; </tspan><tspan class="cls-1" x="19.05" y="10">F</tspan><tspan x="24.65" y="10">ulham</tspan></text>
  </g>
  <g id="Kensington">
    <path class="cls-2" d="M367.1,344.4h0c.4,.8,.9,1.7,1.6,2.6,.4,.9,.7,1.7,.7,2.7,0,2.8-.1,6.8-.3,11.9,0,3.6,.9,6.7,2.8,9.2,.2,.1,2.6,2.6,7.3,7.3,2.2,2.2,3.6,4.8,4.3,7.8,.5,2.5,.7,5.7,.4,9.8,0,.7,.9,2.9,2.9,6.6,1.8,3.8,3.2,6.2,4.2,7.4,1.1,1.5,3,3.3,5.8,5.4,2,1.5,3.7,3.4,5.3,5.7,2.2,3.3,3.7,5.4,4.5,6.4,3.1,3.5,7,8,11.8,13.3,3.9,5.1,6.7,9,8.3,11.8,.2,0,.3,0,.3-.2,.1-.3,.2-.4,.5-.4,2.5,0,5.5-.3,8.8-.9,1.3-2.5,2.8-4.4,4.6-5.7,1.3-1,4.1-2.2,8.3-3.8,3-1.2,7.5-2.3,13.4-3.6,4.4-.9,7.5-1.4,9.1-1.6-.3-3.2-1.9-6.3-4.8-9.2-2.9-2.8-4.3-5.4-4.3-7.8,.1-.2,.4-.8,.6-1.6,0-.3-1.3-6.6-4.1-19-.9,.5-2.7,2.1-5.6,4.8-2.6,2.5-3.9,3.8-3.9,3.7-4.4,.7-7.2,1-8.5,1-4.2,.4-7.1,.7-8.7,.7l-1.2-7.5c0,.1-1.5,0-4.5-.1-.4-1.9-1.5-5.3-3.3-10.3-1.7-4.3-2.5-7.1-2.5-8.2-4.1,1.1-6.3,1.7-6.3,1.7-.6-.7-1.1-2.6-1.7-5.8-.4-2.5-1.3-3.8-2.6-3.8-.7,0-2,.2-3.8,.5,.1-2.4-.9-5-2.9-7.7-2.1-2.8-3.2-4.5-3.2-5.1,.7-1.2,1.5-2.1,2.3-2.3-.3-.8-.8-1.6-1.6-2.4-.9-.8-1.6-1.5-2-2-.4-.5-.8-1.4-1.2-2.7-.3-1-.8-1.7-1.6-2-4.9-1.1-9-2.2-12.5-3.2-4.3-1.9-8.1-3-11.3-3.6-2.6-.4-4.4-.4-5.4,.2Z"/>
    <text class="cls-8" transform="translate(409.24 420.4)"><tspan class="cls-7" x="0" y="0">K</tspan><tspan x="5.96" y="0">ensing</tspan><tspan class="cls-10" x="35.67" y="0">t</tspan><tspan x="38.83" y="0">on</tspan><tspan x="2.84" y="10">&amp; Chelsea</tspan></text>
  </g>
  <g id="Hounslow">
    <path class="cls-2" d="M216.6,416.7c-1.9,0-3.6-.7-5.1-2.2-1.5-1.4-3.3-2.2-5.2-2.2-5.2,1.2-8.4,2.1-9.8,2.6-2.5,1.1-5,3.4-7.7,6.9-2.3,2.9-3.7,4.7-4.3,5.4-1.6,1.6-3.4,2.7-5.2,3.1-.9-.9-1.6-2.2-2.2-3.8-.7-1.8-1.4-3-2-3.9-1.2-2.2-1.8-3.5-1.9-3.6-.9-1.4-1.8-1.9-2.6-1.4-.8,.4-2.1,1.1-3.8,2.2-1.7,.9-3.1,1.4-4.5,1.4l-3.9,.2c-1.9-.9-4.8-2-8.7-3.2-6.9-2.7-12-4.7-15.3-6.1-.8-.3-1.5-.6-2-.9-1.2,0-2.1,1.3-2.8,3.9-.6,2.2-.9,4.5-.9,6.9,0,1.8-.4,3.8-1.2,5.9-.9,2.2-1.3,4.1-1.3,5.9l-1.2,6.2c-.8,2.1-2.4,5.3-4.8,9.4,2.5,5.6,3.7,10.5,3.7,14.7,0,.4-.1,.8-.4,1.4,0,1.1,.7,2.5,2,4.1,1.4,1.5,2.2,2.9,2.4,4.1v.9c-.3,1.4-1.3,2.5-3,3.3-1.2,.6-3.2,1.4-6,2.4-3.3,1.5-7.4,4.1-12.3,7.5-2.8,1.6-5.2,3.6-7.1,6.2-.5,.7-1.2,1.8-2.3,3.3l-1,4.7c-2.6,0-4.2,.2-4.7,.6-.5,.4-1.2,1.4-2,3-.8,1.6-1.4,2.6-1.9,3.1-1.3,1.1-2.7,1.6-4.1,1.4l-15.4-5.2v6l-4.2,.9,.9,8,5.1-.3,.4,14.5,2,.1-1.1,8,13.2-4.2-.9,9.9,10.5,.7-.2,8.6,14.4,3.8,1.3-1.9,7.4-4.1c2.9-2.1,5.2-1.8,7.1,.8l2.3,1.2v2.3l1.6,2.4,3.4,1.2c1,2.5,3.8,6.3,8.4,11.3,5.9-3.9,11.9-3.9,18.1-.1l.3,.3,8.4,1.4c-.2-2.2-.9-4.7-2.1-7.7-1.5-3.2-2.6-5.5-3.2-7,.2-.5,1.5-2.5,4-6,.8-1.1,3.1-3,6.8-5.5,.1-.1,1.2-.6,3.4-1.4,1.2-.5,1.8-1.3,1.8-2.2-.5-1.3-.8-2.4-.8-3.2,1.5-1.9,4-3.6,7.6-5.2,1.5-.7,2.4-2,2.4-4,0-2.1-1.5-3.3-4.4-3.6l-6.2,.7c-.9-.2-1.7-.7-2.2-1.4-.8-1-1.3-1.7-1.8-2-1.7-1.1-3.3-1.6-4.9-1.6-2.4-1.4-4.2-4.6-5.3-9.6,1.4-.7,3.3-1.4,5.5-2.1,1.8-.8,3-2.1,3.7-4,1.2-2.2,2-3.8,2.6-4.7,.9-1.6,2.2-2.8,3.6-3.7,1.5-1,3.4-1.5,5.7-1.6,3.1-.2,5.2-.4,6.1-.7,7-1.7,10.7-2.5,10.9-2.6,3.2-.3,5.2,.2,5.9,1.6,.2,.3,.4,.8,.8,1.5,.3,.4,.9,.7,1.8,.7,2.2,0,4.5-.5,6.8-1.6,1.4-.6,3.5-1.6,6.3-2.9,.7,2.5,2.4,5,5.2,7.7,2,0,3.8-1,5.5-2.8,2.5-2.6,4.2-4.2,5.2-4.7,.7,0,1.2,.2,1.6,.6,.4,.3,.9,.5,1.6,.4,.4-1.1,.7-1.8,.7-2.3,0-.7-.2-1.6-.7-2.8-.4-1.1-.7-2.1-.7-2.8,0-3.3,1.5-5.7,4.5-7.2,.9-.6,2.1-1,3.8-1.1,0-3.2,0-5.6,.1-7,.1-2.5,.9-4.6,2.2-6.2,7.7-3.3,12.5-6.6,14.3-9.8,2.7-4.9,5.5-9.2,8.6-13.1,2.7-3.6,4.4-5.7,4.9-6.2,2.2-2.2,3.3-3.3,3.6-3.4,1.4-.9,3.7-1.2,6.7-.9,1.7,.1,3.2,.8,4.7,2.2,3.4,1.4,6.5,4.4,9.4,9,.8,1.3,1.9,3.7,3.3,7,1.2,2.8,2.5,5.1,3.8,6.8,2.3,3.1,6.4,5.6,12.3,7.6,.4,.1,2.1,.2,5,.2,3.8,0,7-1.5,9.7-4.5,2.5-2.9,3.8-6.4,3.8-10.3,.2-3.7,.2-6.5,.2-8.4,0-2.1,.4-3.8,1.1-5.2,1.2-1.7,2.2-3.3,3.1-4.7,1-1.5,2.1-2.7,3.3-3.5-1.6-1.7-2.4-4-2.4-7,0-1.1,.2-2.5,.6-4.1,.4-1.6,.6-3,.6-4.2l-1-3.9-4.7,1.1c-.6,0-1.9-.8-3.8-2.3-2-1.6-3.3-3.2-3.9-4.6-.1,.1-.2,.1-.2,.2-.6,.4-1,1.5-1.4,3.2-.4,2.5-.7,3.8-.8,4l-1.7,5.4-1.8-.6c-.9-.4-1.3-.6-1.3-.5-.1,.3-.4,.4-1,.4-1.9,.4-3.4,.7-4.6,.7h-7.3c-.3,.3-.6,.4-.8,.4-1.6,0-2.8-.3-3.7-1-.2-.1-1.3-1.3-3.5-3.5-2.5-2.7-4.3-4.7-5.4-6-1.9-2.3-3.1-4.3-3.5-6-1.3,0-2.8,.7-4.4,2-1.6,1.4-3.1,2-4.3,2-3.4-.6-6.2-.9-8.3-.9-2.9,.7-5.5,2.1-7.8,4.1,0,1.2,.3,2.4,.8,3.6,.3,.7,.9,1.9,1.6,3.4,.1,.4,.1,1.5,0,3.1-.8,.2-1.6,.2-2.2,.2-1,0-2.1-.9-3.2-2.6-1-1.8-2.1-2.7-3.2-2.7-.6,0-.9,.4-.9,1.2,0,.9,.3,2.1,.9,3.5,0,.7-.5,1.3-1.3,1.7l-2.6,.7c-3.5,1.2-5.8,1.7-6.9,1.6-.5-.8-1-2.1-1.5-3.6-.5-1.6-1-2.8-1.6-3.7-.3,.3-1,1-1.9,2.4-.7,.9-1.5,1.4-2.3,1.4-1,0-2.1-.6-3.3-1.7s-2.2-1.6-3.2-1.6c-1.1,0-2.5,.3-4.1,.9-1.7,.5-3.1,.8-4.1,.8-.7,0-1.5-.2-2.5-.6-1-.5-1.9-.7-2.5-.7h-11.1Z"/>
    <text class="cls-8" transform="translate(154.25 477.6)"><tspan x="0" y="0">Hounsl</tspan><tspan class="cls-10" x="30.8" y="0">o</tspan><tspan x="36.34" y="0">w</tspan></text>
  </g>
  <g id="Richmond">
    <path class="cls-2" d="M167.1,513.9c-2.2,.7-4.1,1.4-5.5,2.1,1.1,5,2.9,8.2,5.3,9.6,1.6,0,3.2,.5,4.9,1.6,.5,.3,1,1,1.8,2,.5,.7,1.3,1.2,2.2,1.4l6.2-.7c2.9,.3,4.4,1.5,4.4,3.6s-.9,3.3-2.4,4c-3.6,1.6-6.1,3.3-7.6,5.2,0,.8,.3,1.9,.8,3.2,0,.9-.6,1.7-1.8,2.2-2.2,.8-3.3,1.3-3.4,1.4-3.7,2.5-6,4.4-6.8,5.5-2.5,3.5-3.8,5.5-4,6,.6,1.5,1.7,3.8,3.2,7,1.2,3,1.9,5.5,2.1,7.7l-8.4-1.4,5.2,4.1-2.3,1.8,4.4,9.9-5.9,.3,1.4,8.2c2.7-.2,5.3,0,7.8,.4v2.9l3.1,1c4.4,.2,8.1-.9,11.2-3.2l9.9-4.6c2.6-1.2,6.4-.7,11.1,1.4l15.3,12.1c2.7,1.6,5.4,4.1,8.2,7.6l7.8,9.4c1,3.1,2.8,5.9,5.2,8.4,3,3.1,7.6,2.2,13.7-2.7,4.4-4.4,7.4-7.7,8.9-10.1,1-1.5,1.7-3,2.1-4.6,.4-1.9,.8-3.6,1.1-5v-5.3c0-1.4-.2-2.7-.5-3.9-.3-1.2-.4-2.5-.4-3.9v-1.7c-.1-3.6-.1-6.2,0-7.8,.1-2.5,.8-5.1,1.9-7.5l.1-1.6c.1-.5,.4-2.2,1-4.9,.6-3-.2-6-2.4-9-1.3-1.6-2.1-2.6-2.4-2.9-1.6-.9-2.7-1.5-3.4-2-1.3-.7-2-1.6-2-2.7,0-1.7,.6-3.3,1.7-4.7,1.8-2.4,2.9-3.9,3.3-4.6,.6,.3,1.4,1.1,2.5,2.3,.9,1,1.8,1.5,2.7,1.5,.4,0,.9-.2,1.6-.5,.6-.4,1.1-.6,1.5-.6,2,0,3.7,.7,5.2,2.1,.2,.2,1.5,1.7,4.1,4.6,.1,.2,.5,.9,1.3,2.3,.4,1,1,1.4,1.7,1.4,.4,0,.9-.4,1.5-1.1,.5-.8,1-1.2,1.5-1.2,.8,0,1.8,.8,2.8,2.4l.5,.9,3.8,11.5,7.6-3.2,3.9-4.8c2-2.4,3.4-4,4.4-4.9,2.6-2.6,4.8-4.9,6.5-6.9,4.1-3.8,7.5-7.1,10.4-9.9,2.6-1.6,4.4-2.9,5.3-3.7,1.9-1.7,3.8-3.3,5.8-4.8,1-.7,2-1.5,3.1-2.2,.2-.2,2.3-1.9,6.3-5.1,1.4-.8,2.5-1.4,3.1-1.8,1.2-.6,1.7-1.4,1.6-2.2,.2-2.1-.1-3.9-1-5.4-1.7-3.4-3.6-6.2-5.8-8.4-1.9-1.9-4.6-4-8.1-6.2-2.7-1.6-4.4-2.9-5.2-3.7-1.3-1.3-1.9-2.8-1.8-4.5,.4-2.3,1.5-6.3,3.4-11.9,1.8-2.8,2.8-4.2,2.9-4.3,1.1-1.4,2.5-2,4.1-2l1.3-.2c.9,0,2.2,.2,3.7,.5h7.7c1,0,2.3,.3,3.8,.8,1.6,.6,2.8,.8,3.8,.8-.1-1.4,0-3.2,.4-5.4,.4-2.4,.6-4.2,.5-5.5-.5-5,.8-7.5,3.7-7.5,1,0,2.3,.5,3.6,1.4,1.4,1,2.6,1.5,3.6,1.5,1.7,0,3.5-.6,5.3-1.9-.7-1.2-1.5-2.5-2.2-3.9-1.4-2.7-2.1-6.1-2.1-10.3-.1-4.7-.4-8-1.1-10.1-3.1-9.5-8.7-13.3-16.8-11.4-2.9,.7-5,1.4-6,1.9-.5,.3-1,.6-1.5,1-1.2,.8-2.3,2-3.3,3.5-.9,1.4-1.9,3-3.1,4.7-.7,1.4-1.1,3.1-1.1,5.2,0,1.9,0,4.7-.2,8.4,0,3.9-1.3,7.4-3.8,10.3-2.7,3-5.9,4.5-9.7,4.5-2.9,0-4.6-.1-5-.2-5.9-2-10-4.5-12.3-7.6-1.3-1.7-2.6-4-3.8-6.8-1.4-3.3-2.5-5.7-3.3-7-2.9-4.6-6-7.6-9.4-9-1.5-1.4-3-2.1-4.7-2.2-3-.3-5.3,0-6.7,.9-.3,.1-1.4,1.2-3.6,3.4-.5,.5-2.2,2.6-4.9,6.2-3.1,3.9-5.9,8.2-8.6,13.1-1.8,3.2-6.6,6.5-14.3,9.8-1.3,1.6-2.1,3.7-2.2,6.2-.1,1.4-.1,3.8-.1,7-1.7,.1-2.9,.5-3.8,1.1-3,1.5-4.5,3.9-4.5,7.2,0,.7,.3,1.7,.7,2.8,.5,1.2,.7,2.1,.7,2.8,0,.5-.3,1.2-.7,2.3-.7,.1-1.2-.1-1.6-.4-.4-.4-.9-.6-1.6-.6-1,.5-2.7,2.1-5.2,4.7-1.7,1.8-3.5,2.8-5.5,2.8-2.8-2.7-4.5-5.2-5.2-7.7-2.8,1.3-4.9,2.3-6.3,2.9-2.3,1.1-4.6,1.6-6.8,1.6-.9,0-1.5-.3-1.8-.7-.4-.7-.6-1.2-.8-1.5-.7-1.4-2.7-1.9-5.9-1.6-.2,.1-3.9,.9-10.9,2.6-.9,.3-3,.5-6.1,.7-2.3,.1-4.2,.6-5.7,1.6-1.4,.9-2.7,2.1-3.6,3.7-.6,.9-1.4,2.5-2.6,4.7-.7,1.9-1.9,3.2-3.7,4Z"/>
    <text class="cls-8" transform="translate(230.22 523.38)"><tspan x="0" y="0">Richmond</tspan><tspan class="cls-6" x="-8.46" y="10">U</tspan><tspan x="-1.48" y="10">pon Thames</tspan></text>
  </g>
  <g id="Wandsworth">
    <path class="cls-2" d="M342.5,545.68c2.9-1.1,5.9-2.39,9.6-3.99,11.7-4.3,20.6-7,26.6-7.9,1.7-.3,2.8-.5,3.4-.5,1.2,0,2.8,.3,4.6,.9,1.9,.5,3.5,.8,4.7,.8,5.8-.1,11.2-1.3,16.3-3.6,6-2.7,10.1-4.3,12.3-4.6,.8,0,1.2,.6,1.2,1.9,0,.8-.1,1.9-.3,3.4,0,1.2-.3,5-1,11.4,0,2.8,.7,4.2,1.9,4.2,.7,0,1.5-.3,2.4-.9,1-.7,1.7-1,2.4-1,1.2,0,1.8,.7,1.8,2.1l.1,7.9c0,1.7,.8,3,2.3,4,.6,.5,2.2,1.2,4.8,2.3,2,.9,4.6,2,7.6,3.1,2.6,1.2,5,2.5,7.1,4.2,.4,.1,1.1,.5,2.3,1,.9,.5,1.6,.6,2.4,.6,2.2,0,3.5-.3,3.8-.9,.1-.1,.4-1.1,1-2.9,.4-1.1,.9-1.6,1.7-1.6,3.7,1.8,9.1,4.3,16.2,7.3,2,1.2,4.4,1.9,7,2.2,.9-.9,1.26-1.25,1.4-1.4,1.6-2.1,2.4-4.4,2.4-7-.4-2.8-.6-4.9-.6-6.4,.3-4.4,.3-8.2,.3-11.4,3.4,1.4,5,1.8,5,1.2,0-.8-.3-2.2-1-4.2-.7-2.1-1-3.5-1-4.2-3.4,0-5-1.9-5-5.6,0-1.4,.8-2.9,2.4-4.4,1.5-1.6,2.3-3.1,2.3-4.5,.2-.9,.3-1.6,.3-2.1-2,.3-5.2,.4-9.9,.4-1.3-2.6-2-5-2-7.1v-3.7c0-1.2,.6-2.6,1.8-4.2,1.1-1.7,1.6-3.1,1.6-4.2v-1.1c-3-.2-4.8-.4-5.4-.7-.6-.3-.9-.8-.9-1.6,0-.9,.1-1.7,0-2.2-.7-2.5-1.2-4.6-1.7-6.2-1.8-4.9-3.1-8.5-3.8-10.6-1.3-3.8-1.5-7.3-.5-10.6,.7-2,2.3-3.6,5.1-4.5,1.2-.4,2.6-1.3,4.3-2.7,1.9-1.6,3.3-2.6,4.2-3,.5-.2,2.1-.6,5.1-1,1.8-.3,2.7-1.1,2.7-2.5,0-.8-.2-1.5-.6-2.2-.3-.6-.5-1.4-.5-2.2,2.4-3.2,4.5-7.4,6.5-12.5,.4-.3,1.2-.7,2.3-1.3,.8-.4,1.4-.9,1.8-1.4-.1-1.4,.3-3,1-4.9-1.4-.7-2.6-.6-3.4,.3-.4,0-.8-.3-1.3-1-.5-.8-.9-1.2-1-1.4-2.2,1.8-4.7,3-7.5,3.7-1.8,.4-4.4,.4-7.8,0-4.1-.5-7.1-.7-8.8-.6h-.8c-1.6,.2-4.7,.7-9.1,1.6-5.9,1.3-10.4,2.4-13.4,3.6-4.2,1.6-7,2.8-8.3,3.8-1.8,1.3-3.3,3.2-4.6,5.7-.2,.4-.4,.8-.6,1.2-.9,2.1-1.7,4.7-2.5,8.1-.9,3.5-1.7,6.2-2.5,8.1-3.2,8-9.1,12-17.6,12h-4.2c-2.2,0-4.4-.4-6.7-1.2-2.6-1-4.8-1.8-6.5-2.3-4.9-1.7-8.9-3.8-12-6.4-2.1-1.8-4.1-4.1-5.9-7-1.8,1.3-3.6,1.9-5.3,1.9-1,0-2.2-.5-3.6-1.5-1.3-.9-2.6-1.4-3.6-1.4-2.9,0-4.2,2.5-3.7,7.5,.1,1.3-.1,3.1-.5,5.5-.4,2.2-.5,4-.4,5.4-1,0-2.2-.2-3.8-.8-1.5-.5-2.8-.8-3.8-.8h-7.7c-1.5-.3-2.8-.5-3.7-.5l-1.3,.2c-1.6,0-3,.6-4.1,2-.1,.1-1.1,1.5-2.9,4.3-1.9,5.6-3,9.6-3.4,11.9-.1,1.7,.5,3.2,1.8,4.5,.8,.8,2.5,2.1,5.2,3.7,3.5,2.2,6.2,4.3,8.1,6.2,2.2,2.2,4.1,5,5.8,8.4,.9,1.5,1.2,3.3,1,5.4,.1,.8-.4,1.6-1.6,2.2-.6,.4-1.7,1-3.1,1.8-4,3.2-6.1,4.9-6.3,5.1-1.1,.7-2.1,1.5-3.1,2.2,.3,1.8,1.1,3.7,2.4,6,.9,1.5,1.44,2.55,1.74,3.35l.26-.05,.3-.11Zm142.2,29.41"/>
    <text class="cls-8" transform="translate(387.65 506.33)"><tspan class="cls-11" x="0" y="0">W</tspan><tspan x="9.25" y="0">ands</tspan><tspan class="cls-10" x="31.63" y="0">w</tspan><tspan x="38.99" y="0">orth</tspan></text>
  </g>
  <g id="Bexley">
    <path class="cls-2" d="M833.3,356.8c-3,0-5.8,.7-8.6,1.9-.3,.2-2,1.1-5,3,2.1,2.7,3.5,6.3,4,10.6,.2,1.6,.3,5.6,.3,12,0,1.1-.1,2.7-.2,4.6,0,2.2,.3,5,.9,8.5v11.7c0,1.6,.4,3.2,1.3,4.7,0,1.6,.2,3.3,.4,5.1,0,1.4,.2,3.1,.6,5.1,0,2.1,.4,4.6,1.3,7.3,.9,3.3,1.5,5.6,1.7,6.9-2.3-2-4.8-3.1-7.5-3.2l-8,13-4.9-6.3-2.1,2-2.6-.9-2.6,2.2-3-1.1-3.1-.2-1.1,3.9c-3.8-.2-6.4,1.4-7.6,4.7-3.3,.5-5.8,3.1-7.7,7.5l-3.7,2.9c-.4,4.7,.2,9.4,1.8,14.1,.6,2.2,1.7,4.2,3.2,6,1.2,2.4,2.1,5.9,2.5,10.5l2.4,6.9-1.8,3,.1,1.4-1.5,2.6,2.4,2.1-2,2.4-3.7-.3,1.5,2.9-1.8,2.8-2.8-.2-2.5,6.4c-2.2,.2-3.6,1.1-4.1,2.9l1.9,2.2-1.3,3,1.9,1.3-.8,4.1c.8,0,1.6-.1,2.4-.1l7.3,5c2.1,2,3.8,4.1,5.2,6.3,4.5,5.8,8.9,10.3,13.4,13.4,6.8,5.1,13.4,8.7,19.9,11,5.1-1.2,11.2-3,18.3-5.4,.3,0,1.7,.2,4,.9,2.9,.6,5.1,1.5,6.7,2.3,8.4,4.5,14.2,7.4,17.7,8.7,.5,1.1,1.2,2,1.8,2.8,.1-.3,.2-.6,.5-.8,.3-.2,.5-.4,.5-.7,0-.2,.8-.2,2.4-.1,1.6,.1,2.5-.1,2.6-.5-.5-.4-.6-1.4-.4-3,.1-1.6,.2-2.5,.1-2.7-.2-.5-.9-.7-2.2-.5l-1.8,.1c-.2-1.5-.3-2.6-.3-3.1-.1-.9,.1-1.6,.4-2.4,.9-1.1,1.3-3.6,1.3-7.7,2,0,3.1-.4,3.2-1.1,.1-.5,0-.8-.4-1.2-.6-.4-1.1-.8-1.5-1.2-1.3-1.3-1.5-2.7-.4-3.9,1.3-1.5,2-2.7,2-3.8,0-.9-.3-1.9-.8-3-.5-1-.7-2-.7-2.9,.1-1.4,.5-3.3,1.3-5.7,.7-2.6,1.4-4.1,1.8-4.4,1.1,0,2,.4,2.7,1.1,.7,.7,1.6,1,2.7,1,.4,0,1.4,.1,2.7,.3,1,.2,1.9,.2,2.5,0,1.3-.3,1.9-1.7,1.9-4.1,.7-1.4,.9-2.9,.7-4.2-.3-1.6-.2-3,.2-4.2,.8-1.3,1.3-2.3,1.5-3.1,.7-3.6,2.6-7,5.7-10.3,.1-.2,.6,0,1.4,.3,.9,.4,1.5,.5,1.8,.3,.5-.3,1.2-.9,2-1.9,.6-.6,1.2-.9,1.8-.9,.5,0,1.1,.2,1.6,.7s1,.7,1.5,.7c1.2,0,1.9-.5,2-1.5,2.4-.3,4.3-1.8,5.7-4.3,1.8-3.3,3.4-5.3,4.8-6.2,.7-.5,1.2-1.4,1.2-2.8,.1-1.1,.6-1.8,1.6-1.9,1.1-.2,2.5-.4,4.3-.6,1.4-.3,2.7-.9,3.6-1.9,.7-.6,2.7-2.2,6-4.7,.7-.8,.9-1.6,.5-2.5-.7-1.8-1.2-3.2-1.3-4.5-.1-.9-.1-1.4-.2-1.4,.7-2,2.4-4,5.1-6.1,1.4-1,2.7-2,4.1-3,0-.1,.1-1.4,.1-3.9,.5-2.3,.7-4.1,.7-5.4-.5-1.8-.6-3.3-.2-4.5-1.9-.4-2.9-1.4-2.9-3,0-1.3,.6-2.4,1.7-3.3,1.2-.9,1.7-1.7,1.8-2.3-.2-1.5-.2-2.7-.2-3.7,0-.8,.7-1.5,2.1-2,1.9-.7,2.9-1.2,3.2-1.5,.5-.5,.7-1.6,.6-3.2-.1-1.7,.1-2.8,.5-3.3,.6-.6,2.1-1.5,4.6-2.9,2.3-1.2,3.7-2.1,4.3-2.8l-.1-.1c-5-4.3-10.1-6.4-15-6.4-1.3,0-2.7,.1-4.2,.4-2.2,.3-4.7,1-7.5,1.9-4.8,1.6-8.7,2.4-11.8,2.4-4.4,0-7.8-.4-10-1-3.2-1-5.7-2.8-7.6-5.5-2.5-3.7-4.3-8.5-5.6-14.3-1.5-7.1-2.9-12.1-4.2-15-.1-.3-.6-2-1.5-5.3-.6-1.8-1.7-3.9-3.5-6.1-5.3-4.3-10.2-6.4-14.7-6.4-.8,0-1.6-.1-2.3-.2-4.7-.5-9.1-1.6-13-3.1-5.6-2.5-10.6-4.5-14.9-6.1-5.2-2.6-8.8-4-11-4Z"/>
    <text class="cls-8" transform="translate(842.66 479.58)"><tspan x="0" y="0">B</tspan><tspan class="cls-12" x="6.62" y="0">e</tspan><tspan x="12.02" y="0">xley</tspan></text>
  </g>
  <g id="Merton">
    <path class="cls-2" d="M342.71,545.6l-.76,.32c.1,.2,.23,.58,.23,.68,.2,1.2-.3,2.4-1.6,3.7-1.4,1.3-2.1,2.6-2.1,3.6,0,.8,.3,1.7,.7,2.8,.5,1.1,.7,2,.7,2.7,0,2.2,.2,4,.5,5.5,.7,2.5,1.5,5,2.4,7.5,.7,2.1,1,4.9,1,8.3,0,.7,.2,2.9,.7,6.8,.1,3.4,1.3,7.1,3.6,11,2.2,3.9,3.4,7.1,3.4,9.6,0,.9-.5,2.5-1.5,4.9l-1.6,7.1c.2,1.7,.9,3.3,2.3,4.8,.9,.8,2.3,2.2,4.2,4.1,1.3,1.4,2.1,4.2,2.4,8.3,.4,.6,1,.9,1.5,.9,1,0,2.2-.6,3.6-1.7,1.5-1.3,2.5-2,3-2,.6,.5,.8,2.8,.4,6.8,1.5,.2,2.8,.9,3.7,2.1,.7,.9,1.9,2.4,3.5,4.5,2.1,2.2,5.3,4.6,9.5,7.3l5,1c.3-.5,1.2-1.9,2.5-4.4,1.2-2.3,2.3-4,3.5-5.2,3.2-4.2,5.1-6.4,5.6-6.4,.5,.5,1.2,1.2,2.1,2,.8,.7,1.7,1,2.9,1,.3,0,.6-.2,.7-.7,.1-.4,.3-.7,.6-.7,1.4,0,2.9,1.6,4.4,4.7,1-.7,1.9-1.3,2.9-1.8,2.4-3.3,4.5-5.3,6.1-6,.4-.2,.8-.1,1,.4,.3,.4,.5,.7,.7,.7,1.2,2.4,2.4,4.3,3.6,5.6,3.1-2.2,4.9-3.5,5.4-3.9,3.8-2.5,6.8-5,8.7-7.6,2.7-4.4,4.3-6.7,4.8-6.8,3.2,.7,6,2.2,8.2,4.7,1.2,1.3,2.8,3.4,4.7,6.1,.5,0,1.1-.2,1.8-.6,.8-.4,1.4-.6,1.9-.6l3.6-.5c2.2,0,5.2-.4,9.1-1.3,6.4-2.4,10.3-3.5,11.7-3.3,1,1.4,1.6,2.3,2,2.5,3.3,0,6.4-.8,9.2-2.6,.3-.1,.5-.3,.8-.5,1.2-.8,2.3-1.7,3.4-2.9,4.6-7,7-10.6,7.1-10.8,0-2.7-1.6-5.8-4.8-9.3-3.3-3.4-4.9-6.5-4.9-9.2v-3.8c0-1.1,.8-2.1,2.4-2.9,1.8-.9,2.9-1.7,3.3-2.6,.3-.5,.6-1.1,.9-1.6-2.7-.4-4.8-.6-6.4-.6-1-.4-1.8-.7-2.5-.7-.4,0-.9,.3-1.6,.7-.7,.4-1.2,.6-1.7,.6-.8,0-2-.4-3.3-1.2-1.3-.8-2.4-1.2-3.3-1.2-.8,0-1.5,.2-2.1,.7-.5,.4-1.3,.7-2,.7-1.4,0-2.6,0-3.6,.1-.9-.3-1-1.3-.2-2.8,.7-1.5,2-3.1,3.8-4.9,1.9-1.9,3.01-3.13,4.01-4.03l.19-.17c-2.6-.3-5-1-7-2.2-7.1-3-12.5-5.5-16.2-7.3-.8,0-1.3,.5-1.7,1.6-.6,1.8-.9,2.8-1,2.9-.3,.6-1.6,.9-3.8,.9-.8,0-1.5-.1-2.4-.6-1.2-.5-1.9-.9-2.3-1-2.1-1.7-4.5-3-7.1-4.2-3-1.1-5.6-2.2-7.6-3.1-2.6-1.1-4.2-1.8-4.8-2.3-1.5-1-2.3-2.3-2.3-4l-.1-7.9c0-1.4-.6-2.1-1.8-2.1-.7,0-1.4,.3-2.4,1-.9,.6-1.7,.9-2.4,.9-1.2,0-1.9-1.4-1.9-4.2,.7-6.4,1-10.2,1-11.4,.2-1.5,.3-2.6,.3-3.4,0-1.3-.4-1.9-1.2-1.9-2.2,.3-6.3,1.9-12.3,4.6-5.1,2.3-10.5,3.5-16.3,3.6-1.2,0-2.8-.3-4.7-.8-1.8-.6-3.4-.9-4.6-.9-.6,0-1.7,.2-3.4,.5-6,.9-14.9,3.6-26.6,7.9-3.7,1.6-6.35,2.75-9.25,3.85l-.12,.05Z"/>
    <text class="cls-8" transform="translate(397.38 596.6)"><tspan x="0" y="0">Mer</tspan><tspan class="cls-10" x="17.08" y="0">t</tspan><tspan x="20.24" y="0">on</tspan></text>
  </g>
  <g id="Lambeth">
    <path class="cls-2" d="M567.2,569.5c.1,0,.1-.1,.1-.1,.1-.2,.2-.4,.2-.5,.1-.5-.1-1.1-.8-1.7-.9-.7-1.6-1.3-2-1.7-.8-1.6-1.4-2.5-1.8-2.8-.4-.3-.9-.3-1.6-.2-.9,.1-1.6,.1-1.9,.1v-2.7c0-.9-.6-2.6-1.9-5.3-1.1-2.3-2.3-3.8-3.5-4.2-.6-1.1-1.1-2.5-1.5-4.1-.6-2.7-.9-4.1-.9-4.3-.9-5.4-1.7-9.4-2.4-12-1.2-1.8-2-3.3-2.3-4.4-.6-4.6-1.4-8.3-2.2-11.1-.5-1.7-2.2-3.7-5.2-6-2.6-2.1-3.9-4.2-3.9-6.3,.2-1.1,.4-2,.4-2.7l.1-1.6c0-1.2,.6-2.4,1.8-3.5,2-1.7,3.1-2.7,3.2-2.9,1.5-1.9,3.2-4.6,5-7.9,.6-.8,1.4-1.9,2.4-3.2,.8-1.1,1.2-2.3,1.2-3.5v-2.6c0-1.2-.3-2.4-.9-3.4-.7-1.2-1.3-2.3-1.8-3.2-1-2.9-1.7-5.4-1.9-7.6-.3,.4-.7,1.4-1.1,3.1-.3,1.3-.8,2-1.5,2-1.5,0-3.3-1.8-5.5-5.2-.9-1.3-1.3-3-1.3-5.2,.4-1.6,.5-3.2,.5-4.5-3.1-2.1-5.1-3.5-5.9-4.4-1.8-.7-2.7-1.1-2.8-1.1,0-.6,.6-1.1,1.8-1.6,1.2-.4,1.8-1,1.8-1.5,0-.7-.5-1.4-1.5-2.3-1.3-1.1-2-1.8-2.2-2.2-.2-.3-.1-.9,.2-1.7,.3-.8,.3-1.4,0-1.7-.4-.5-.9-.8-1.8-1-.8-.2-1.2-.2-1.2-.3,0-.6,1.1-2.5,3.3-5.4,2.1-3,3.2-5.1,3.2-6.3,0-1.9-.6-3.3-1.7-4.1-.4-.4-2.4-1.4-5.8-3.1-2.8-1.3-4.1-2.3-4.1-3,1.4-3.1,2.9-6.4,4.3-10,1.7-2.3,2.4-3.9,2.4-4.6,0-1.8-.7-4.1-2.3-6.8-1.3-2.3-2.1-4.2-2.4-5.7h-.7c-.6,0-1.2,0-1.8,.1-3.5,.4-6.3,1.9-8.4,4.7-2.4,3-3.5,6.8-3.5,11.5,0,1.6-.8,7.5-2.4,17.9-.6,4.6-2.3,8.7-5,12-1,1.3-2,2.4-3.1,3.3,.1,.2,.5,.6,1,1.4,.5,.7,.9,1,1.3,1,.8-.9,2-1,3.4-.3-.7,1.9-1.1,3.5-1,4.9-.4,.5-1,1-1.8,1.4-1.1,.6-1.9,1-2.3,1.3-2,5.1-4.1,9.3-6.5,12.5,0,.8,.2,1.6,.5,2.2,.4,.7,.6,1.4,.6,2.2,0,1.4-.9,2.2-2.7,2.5-3,.4-4.6,.8-5.1,1-.9,.4-2.3,1.4-4.2,3-1.7,1.4-3.1,2.3-4.3,2.7-2.8,.9-4.4,2.5-5.1,4.5-1,3.3-.8,6.8,.5,10.6,.7,2.1,2,5.7,3.8,10.6,.5,1.6,1,3.7,1.7,6.2,.1,.5,0,1.3,0,2.2,0,.8,.3,1.3,.9,1.6,.6,.3,2.4,.5,5.4,.7v1.1c0,1.1-.5,2.5-1.6,4.2-1.2,1.6-1.8,3-1.8,4.2v3.7c0,2.1,.7,4.5,2,7.1,4.7,0,7.9-.1,9.9-.4,0,.5-.1,1.2-.3,2.1,0,1.4-.8,2.9-2.3,4.5-1.6,1.5-2.4,3-2.4,4.4,0,3.7,1.6,5.6,5,5.6,0,.7,.3,2.1,1,4.2,.7,2,1,3.4,1,4.2,0,.6-1.6,.2-5-1.2,0,3.2,0,7-.3,11.4,0,1.5,.2,3.6,.6,6.4,0,2.6-.8,4.9-2.4,7-.1,0-.5,.5-1.4,1.4-1,.9-2.3,2.3-4.2,4.2-1.8,1.8-3.1,3.4-3.8,4.9-.8,1.5-.7,2.5,.2,2.8,1-.1,2.2-.1,3.6-.1,.7,0,1.5-.3,2-.7,.6-.5,1.3-.7,2.1-.7,.9,0,2,.4,3.3,1.2,1.3,.8,2.5,1.2,3.3,1.2,.5,0,1-.2,1.7-.6,.7-.4,1.2-.7,1.6-.7,.7,0,1.5,.3,2.5,.7,1.6,0,3.7,.2,6.4,.6,2.2-4.3,4.3-7.9,6.3-10.7,1.2-1,2.2-2.4,3-4.2,2.7-1.1,6.1-4.1,10.4-9.2,.5-.2,2-.2,4.3,.1,.7,0,1.3,.2,1.9,.7,.7,.5,1.3,.7,1.9,.7,.9,0,2.3-.1,3.9-.4,1.4-.3,2.5-.4,3.3-.2,.8,.1,2.4,.1,4.7-.2,2.1-.2,3.9-.2,5.4,.2,1.1,.2,2.6,1.2,4.6,2.9,1.8,1.6,3.4,2.3,4.7,2.3,2.2,0,4.7,0,7.4-.3l1.5-.4,.5,.3Z"/>
    <text class="cls-8" transform="translate(487.66 499.73)"><tspan class="cls-6" x="0" y="0">L</tspan><tspan x="5.22" y="0">ambeth</tspan></text>
  </g>
  <g id="Southwark">
    <path class="cls-2" d="M625.9,390.4c-.3-1.6-1-3-2-4.1-1.4-1.6-3.3-2.5-5.7-2.8-.7-.1-3-.1-6.9-.1-3.5,0-6.8,1.5-10.1,4.6-1.8,1.8-3.2,3.1-4.2,4.1-1.7,1.6-3.3,2.8-4.7,3.7-1.6,1-4.4,1.5-8.6,1.5-3.3,0-6.6-1.1-10.1-3.3-4.8-3.1-8.1-4.9-9.6-5.5-.7-.3-1.4-.6-2.2-.8-4.4-1.6-9-2.7-13.6-3.4-6.7-.7-12.1-1.3-16.5-1.9-5,.6-8.4,1-10.2,1.1,.3,1.5,1.1,3.4,2.4,5.7,1.6,2.7,2.3,5,2.3,6.8,0,.7-.7,2.3-2.4,4.6-1.4,3.6-2.9,6.9-4.3,10,0,.7,1.3,1.7,4.1,3,3.4,1.7,5.4,2.7,5.8,3.1,1.1,.8,1.7,2.2,1.7,4.1,0,1.2-1.1,3.3-3.2,6.3-2.2,2.9-3.3,4.8-3.3,5.4,0,.1,.4,.1,1.2,.3,.9,.2,1.4,.5,1.8,1,.3,.3,.3,.9,0,1.7-.3,.8-.4,1.4-.2,1.7,.2,.4,.9,1.1,2.2,2.2,1,.9,1.5,1.6,1.5,2.3,0,.5-.6,1.1-1.8,1.5-1.2,.5-1.8,1-1.8,1.6,.1,0,1,.4,2.8,1.1,.8,.9,2.8,2.3,5.9,4.4,0,1.3-.1,2.9-.5,4.5,0,2.2,.4,3.9,1.3,5.2,2.2,3.4,4,5.2,5.5,5.2,.7,0,1.2-.7,1.5-2,.4-1.7,.8-2.7,1.1-3.1,.2,2.2,.9,4.7,1.9,7.6,.5,.9,1.1,2,1.8,3.2,.6,1,.9,2.2,.9,3.4v2.6c0,1.2-.4,2.4-1.2,3.5-1,1.3-1.8,2.4-2.4,3.2-1.8,3.3-3.5,6-5,7.9-.1,.2-1.2,1.2-3.2,2.9-1.2,1.1-1.8,2.3-1.8,3.5l-.1,1.6c0,.7-.2,1.6-.4,2.7,0,2.1,1.3,4.2,3.9,6.3,3,2.3,4.7,4.3,5.2,6,.8,2.8,1.6,6.5,2.2,11.1,.3,1.1,1.1,2.6,2.3,4.4,.7,2.6,1.5,6.6,2.4,12,0,.2,.3,1.6,.9,4.3,.4,1.6,.9,3,1.5,4.1,1.2,.4,2.4,1.9,3.5,4.2,1.3,2.7,1.9,4.4,1.9,5.3v2.7c.3,0,1,0,1.9-.1,.7-.1,1.2-.1,1.6,.2,.4,.3,1,1.2,1.8,2.8,.4,.4,1.1,1,2,1.7,.7,.6,.9,1.2,.8,1.7,2.1-5.3,3.3-8.4,3.5-9.5,.1-.5,.8-1.5,2.2-2.9v-.1c0-.6-.3-1.4-.8-2.5-.6-1-.9-1.9-.9-2.6,0-1.5,.7-3.9,2.1-7,.3-.8,1-1.2,2-1.2,1.3-.1,2-.2,2.2-.3,1.2-.8,3.2-1.8,6-3.1,2.3-1.2,3.4-2.7,3.4-4.4,.5-2.8,.8-4.7,.9-5.5-.1-2.3-.1-4-.1-5.3-1-.7-1.6-1.1-1.7-1.2,.7-1.5,1.3-3.2,1.7-5.2,.3-2.3,.5-4,.7-5.2,.8-3.9,2.8-6.9,6.3-8.9,1.5,1.1,3.2,2.3,5.1,3.7,1.9-1.4,3.8-2.5,5.8-3.3,2.4,.6,3.6,.7,3.8,.5,.7-1.3,2.2-5,4.5-11.3-.2-.7-1-1.5-2.3-2.2-1.5-.8-2.3-1.4-2.6-2,1.1-3.7,1.4-6.3,1.1-7.7-.5-2.3-1.5-4.4-2.8-6.4-.1-.1-1.3-1.7-3.8-4.9-3-4-4.4-8.5-4.1-13.5-.6-5.7-.8-9.2-.8-10.4-1.5-.7-2.3-1.2-2.5-1.7,1.1-3.5,1.7-6,1.8-7.5,.1-3.5-.8-7.5-2.9-11.9,0-.8,.6-1.4,1.7-1.8,1.8-.6,2.7-.9,2.9-1,2.1-1.2,3.3-2,3.8-2.1,1-.5,2.4-.7,4.2-.7,.3,0,.4,.2,.5,.5,0,.4,.1,.5,.4,.5,1.9,.2,2.8,.2,2.7,0-.2-.4,.1-.7,.9-1.1,.9-.3,1.3-.6,1.3-.7-.6-1.6-.8-2.6-.8-3.2,.1-.4,.7-.7,1.9-.7,.3,0,.6,.2,.9,.5,.2,.3,.5,.4,.9,.4,1.5,0,3.3-.5,5.4-1.7,2.6-1.4,4.5-2.3,5.6-2.6-.2-.6-.3-1.3-.3-1.9,0-6-.3-10.8-.9-14.5-.2-2.3-.4-3.9-.5-4.9Z"/>
    <text class="cls-8" transform="translate(540.63 440.03)"><tspan x="0" y="0">South</tspan><tspan class="cls-10" x="26.37" y="0">w</tspan><tspan x="33.73" y="0">ark</tspan></text>
  </g>
  <g id="Sutton">
    <path class="cls-2" d="M352,657.3h.1l.2,8.8c.7,6.8,.2,13-1.4,18.7l6.8,2.6,2.7-5.1,7.7,4.6,8.4,6.4c2.5,2.5,4.4,6.4,5.9,11.9,.9,3,1.3,6.6,1.1,10.6l2,.9,4.1,17c-3.4,1.9-8.7,6.7-15.7,14.3l13.4,13.2c4.2,3.2,7.8,.8,10.7-7.2l-.7-5.7,12.8-6.9,3.9-8.3c2.5-.2,7.5,1.6,15.1,5.5l9.6,7.2c3.3,2.7,6,6.2,8.2,10.6,2.6,3.4,7.3,4.5,14.3,3.5l.8,2.4-2.9,1.4,1,3-.3,1.5,5.4,5.3,1.9-1.2c1.4,1.2,2.5,2.7,3,4.3l3.4-2.1,3.8,.9c3.2-1.2,5.2-2.1,6.1-2.9,1.3-1.1,2-2.9,2-5.2-.3-.7-1.1-1.6-2.2-2.6-1.7-1.3-2.7-2.3-3.3-2.9,2.7-1.6,4.7-2.8,6.2-3.8-2.4-4.4-3.7-7.1-4-8-.9-2.5-1.4-4.1-1.6-4.9-.4-1.2-.2-2.3,.5-3.1,1.6-.7,3.3-1.5,5-2.4l-1.4-5.2c1.6-1.3,3.6-2.4,5.7-3.5,2.5-1.2,4.5-2.2,6-2.9,.7,0,1.4,.3,2.2,1,.9,.6,1.6,1,2.2,1,.8,0,1.2-.5,1.2-1.5,.1-1.7,.1-2.5,.1-2.6,.1-.6,.7-1.2,1.7-1.9,1.1-.7,2-1,2.6-1,1.1,0,1.9,1.5,2.3,4.5,5.6-.3,9.4-.5,11.3-.9,0-1.5-.4-4.5-1.2-9-.9-4.5-1.3-7-1.3-7.3-.7-.1-1.3-.1-1.9-.2-.4-3.8-.8-6.1-1.4-7-.4-.2-1.3-.3-2.9-.2l-2.2,.2c-.3-1.8-.3-2.9-.3-3.4,0-.7,.6-1,2-1.1,1.3,0,2-.4,2-1-.4-1.6-.6-2.8-.6-3.8,0-.9,.5-1.9,1.6-3,1-1.1,1.5-2.1,1.5-3s-.6-1.4-1.8-1.4c-1.6,0-2.7,0-3.5-.1-.2-.3-.3-.6-.3-.9,0-.5,.4-1,1.1-1.5,.8-.6,1.2-1.1,1.2-1.5,0-1-.2-2.1-.7-3.3-.5-1.6-.9-2.7-1-3.3-.5-2.9-1.5-5.9-2.8-8.8-1.3-2.8-2.2-5.8-2.7-9,0-.2-.3-1.2-1-2.9-.7-1.8-1.1-2.8-1.3-3-.4-.7-.6-1.4-.5-2.3,.2-1.1,.3-1.9,.3-2.6s-.5-1.7-1.2-2.7c-.8-1.1-1.3-2-1.3-2.8,.3-.7,.5-1.3,.5-1.8,0-1-.7-2.2-2.2-3.3-1.4-1.2-2.2-2.3-2.2-3.4,0-.5-.1-.9-.2-1.1l-.4-.6c-2.8,1.8-5.9,2.6-9.2,2.6-.4-.2-1-1.1-2-2.5-1.4-.2-5.3,.9-11.7,3.3-3.9,.9-6.9,1.3-9.1,1.3l-3.6,.5c-.5,0-1.1,.2-1.9,.6-.7,.4-1.3,.6-1.8,.6-1.9-2.7-3.5-4.8-4.7-6.1-2.2-2.5-5-4-8.2-4.7-.5,.1-2.1,2.4-4.8,6.8-1.9,2.6-4.9,5.1-8.7,7.6-.5,.4-2.3,1.7-5.4,3.9-1.2-1.3-2.4-3.2-3.6-5.6-.2,0-.4-.3-.7-.7-.2-.5-.6-.6-1-.4-1.6,.7-3.7,2.7-6.1,6-1,.5-1.9,1.1-2.9,1.8-1.5-3.1-3-4.7-4.4-4.7-.3,0-.5,.3-.6,.7-.1,.5-.4,.7-.7,.7-1.2,0-2.1-.3-2.9-1-.9-.8-1.6-1.5-2.1-2-.5,0-2.4,2.2-5.6,6.4-1.2,1.2-2.3,2.9-3.5,5.2-1.3,2.5-2.2,3.9-2.5,4.4l-5-1c-4.2-2.7-7.4-5.1-9.5-7.3-1.6-2.1-2.8-3.6-3.5-4.5-.9-1.2-2.2-1.9-3.7-2.1h-.7c-3.6,0-6.5,2.3-8.9,7.1l-4.2,8.9Z"/>
    <text class="cls-8" transform="translate(430.95 698.56)"><tspan x="0" y="0">Sut</tspan><tspan class="cls-10" x="15.07" y="0">t</tspan><tspan x="18.23" y="0">on</tspan></text>
  </g>
  <g id="Croydon">
    <path class="cls-2" d="M566.65,569.16l-1.5,.4c-2.7,.3-5.2,.3-7.4,.3-1.3,0-2.9-.7-4.7-2.3-2-1.7-3.5-2.7-4.6-2.9-1.5-.4-3.3-.4-5.4-.2-2.3,.3-3.9,.3-4.7,.2-.8-.2-1.9-.1-3.3,.2-1.6,.3-3,.4-3.9,.4-.6,0-1.2-.2-1.9-.7-.6-.5-1.2-.7-1.9-.7-2.3-.3-3.8-.3-4.3-.1-4.3,5.1-7.7,8.1-10.4,9.2-.8,1.8-1.8,3.2-3,4.2-2,2.8-4.1,6.4-6.3,10.7-.3,.5-.6,1.1-.9,1.6-.4,.9-1.5,1.7-3.3,2.6-1.6,.8-2.4,1.8-2.4,2.9v3.8c0,2.7,1.6,5.8,4.9,9.2,3.2,3.5,4.8,6.6,4.8,9.3-.1,.2-2.5,3.8-7.1,10.8-1.1,1.2-2.2,2.1-3.4,2.9-.3,.7-.5,1-.4,1.1,.1,.2,.2,.6,.2,1.1,0,1.1,.8,2.2,2.2,3.4,1.5,1.1,2.2,2.3,2.2,3.3,0,.5-.2,1.1-.5,1.8,0,.8,.5,1.7,1.3,2.8,.7,1,1.2,2,1.2,2.7s-.1,1.5-.3,2.6c-.1,.9,.1,1.6,.5,2.3,.2,.2,.6,1.2,1.3,3,.7,1.7,1,2.7,1,2.9,.5,3.2,1.4,6.2,2.7,9,1.3,2.9,2.3,5.9,2.8,8.8,.1,.6,.5,1.7,1,3.3,.5,1.2,.7,2.3,.7,3.3,0,.4-.4,.9-1.2,1.5-.7,.5-1.1,1-1.1,1.5,0,.3,.1,.6,.3,.9,.8,.1,1.9,.1,3.5,.1,1.2,0,1.8,.5,1.8,1.4s-.5,1.9-1.5,3c-1.1,1.1-1.6,2.1-1.6,3,0,1,.2,2.2,.6,3.8,0,.6-.7,1-2,1-1.4,.1-2,.4-2,1.1,0,.5,0,1.6,.3,3.4l2.2-.2c1.6-.1,2.5,0,2.9,.2,.6,.9,1,3.2,1.4,7,.6,.1,1.2,.1,1.9,.2,0,.3,.4,2.8,1.3,7.3,.8,4.5,1.2,7.5,1.2,9-1.9,.4-5.7,.6-11.3,.9-.4-3-1.2-4.5-2.3-4.5-.6,0-1.5,.3-2.6,1-1,.7-1.6,1.3-1.7,1.9,0,.1,0,.9-.1,2.6,0,1-.4,1.5-1.2,1.5-.6,0-1.3-.4-2.2-1-.8-.7-1.5-1-2.2-1-1.5,.7-3.5,1.7-6,2.9-2.1,1.1-4.1,2.2-5.7,3.5l1.4,5.2c-1.7,.9-3.4,1.7-5,2.4-.7,.8-.9,1.9-.5,3.1,.2,.8,.7,2.4,1.6,4.9,.3,.9,1.6,3.6,4,8-1.5,1-3.5,2.2-6.2,3.8,.6,.6,1.6,1.6,3.3,2.9,1.1,1,1.9,1.9,2.2,2.6,0,2.3-.7,4.1-2,5.2-.9,.8-2.9,1.7-6.1,2.9l-3.8-.9-3.4,2.1c.1,.2,.1,.4,.2,.7l-6.9,3.8,5.3,10.9-1.8,7.8,3.5,1.2-1.7,7.8,1.9,1.1-2.5,3.2,1.1,1.4,1,4.6,3.2-1,6.3,2.9,5,1.3,2.3-.9,3.7,1,3.9-2.7,2.9,4.2,1.2,.1c.5,1.7,2.2,4,4.8,6.9l-.3,1.1c.8,2.5,2.8,5.7,6.1,9.8,.4,1.7,1.5,3.8,3.5,6.4l13.2-1.4c-3-3.2-3-6.6-.2-10.3l4.4-.6,21.2-14.8,.5-2.9,4.6-2.4-.5-1.4,.2-3.8h1l.4-1.3,1.3-.4-.3-5.1,4.9-5.8c2.9,.8,4.4-1.2,4.6-6l-1.8-4,1.9-1-1.1-2.4,2.3-2.9h1.3l.3-3.8,9.8-3.6,4.8-3.4,3.8,6.5,2.1-1.3,1,2,1.7-2.1,2.3-.3,3.3-3,2.3,1,1.8-1.8,5.1,.4,3.7-2.4,.2-4,1-1.6,2.2-.3c.1-3.3-1.5-7.2-4.7-11.7l1-2.4,6.1-2.9c3.4,.2,5.4-.8,5.9-3l2.3-5.2c.8-2.5,2.8-2.9,5.8-1.3,1.9,1,3.8,1.2,5.6,.7,2.3-1.4,5-2.3,8-3,2.3,.7,3.9,1.9,5,3.8,1.7,4.2,4.8,8.4,9.1,12.8l2.6-4.7,1.7-.3,.2-2.8,4.5,1-.5,1,9.6,7.9,4.2-.8,1.6-5.4-3.8-3.2c-2.1-6.9-3.4-12.5-3.9-16.7-3.6-9.6-5.1-16.2-4.7-19.6-.9-3.9-3.1-7.1-6.8-9.5-6.3-4.7-10.8-9.6-13.6-14.7l-3.7-4.5-2.4,1.1-2.1-2.8,2.7-2.7c-.5-9.1-2.1-15.1-4.8-18.2,.5-2.7,.1-5-1.2-6.8-1.8-.2-2.4,.5-1.9,1.9l-.2,1.1-1.3,.5-1.4,1.9c-2.7,.9-5.2,1.2-7.5,1.2-2.1-8.7-2.5-16.2-1.3-22.4l-.3-1.7-2.9-2.4h-4.2c-4.9-4.3-9-7.3-12.5-8.8-2.7-2.1-3.2-4.4-1.6-7l1.8-5-1.7-2.5c-4.5,.2-8,2.3-10.5,6.2l-1-.5,1.6-2.4-3.4-3.9c-4.5-1.2-7.3-3.1-8.5-5.6l-4.8-6.7c-2.2-4.1-2.8-7.4-1.7-9.9,0-1-1.4-2.3-4.4-4.2l-8.1-3.4c.9-2.3,2-4.6,3.2-7,.1,0,.1-.1,.1-.1,.1-.2,.2-.4,.2-.5l-.8,.3Z"/>
    <text class="cls-8" transform="translate(560.6 710.7)"><tspan x="0" y="0">C</tspan><tspan class="cls-13" x="6.9" y="0">r</tspan><tspan class="cls-10" x="10.22" y="0">oy</tspan><tspan x="20.63" y="0">don</tspan></text>
  </g>
  <g id="Lewisham">
    <path class="cls-2" d="M669.5,456.2c-.8,0-2.5-.2-5.4-.7-1.6-.2-4.6-.3-8.8-.3-4.5,1.1-6.7,1.7-6.7,1.7,0,.1,.4,.8,1.3,2.2,.9,1.4,1.4,2.7,1.4,3.8,0,.2-.8,.7-2.2,1.3-2.3-.6-3.6-1.4-3.9-2.2-.8-2-1.3-3.3-1.7-4-.2-.3-.6-.4-1.2-.3-.6,.1-1,.1-1.1-.2-.7-1.2-1.3-2.2-1.5-2.7-.5-.9-.7-2.1-.7-3.5,0-.6,.3-1,.8-1.2,.9-.4,1.4-.6,1.4-.6,.2-.2,.2-.7,0-1.5,1.3-1,1.8-2.3,1.6-3.8-.2-1.5,0-2.6,.6-3.2,1.7-.7,2.6-1.5,2.6-2.5,0-.6-.3-1-.8-1-.9,0-1.5,.1-2.1,.1-1,0-1.8,.6-2.5,1.7-.6,1.2-1.4,1.7-2.5,1.7-.3,0-.6-.5-.9-1.5-.4-1.1-1.2-1.6-2.6-1.7-.9-.1-1.2-.7-1-1.9,.2-1.3,0-2-.6-2.1,.2-.5,1.5-2.8,4-7.2-1.8-1.5-3.7-3.6-5.7-6.5-1.9-2.9-3.2-5.7-3.7-8.4-1.1,.3-3,1.2-5.6,2.6-2.1,1.2-3.9,1.7-5.4,1.7-.4,0-.7-.1-.9-.4-.3-.3-.6-.5-.9-.5-1.2,0-1.8,.3-1.9,.7,0,.6,.2,1.6,.8,3.2,0,.1-.4,.4-1.3,.7-.8,.4-1.1,.7-.9,1.1,.1,.2-.8,.2-2.7,0-.3,0-.4-.1-.4-.5-.1-.3-.2-.5-.5-.5-1.8,0-3.2,.2-4.2,.7-.5,.1-1.7,.9-3.8,2.1-.2,.1-1.1,.4-2.9,1-1.1,.4-1.7,1-1.7,1.8,2.1,4.4,3,8.4,2.9,11.9-.1,1.5-.7,4-1.8,7.5,.2,.5,1,1,2.5,1.7,0,1.2,.2,4.7,.8,10.4-.3,5,1.1,9.5,4.1,13.5,2.5,3.2,3.7,4.8,3.8,4.9,1.3,2,2.3,4.1,2.8,6.4,.3,1.4,0,4-1.1,7.7,.3,.6,1.1,1.2,2.6,2,1.3,.7,2.1,1.5,2.3,2.2-2.3,6.3-3.8,10-4.5,11.3-.2,.2-1.4,.1-3.8-.5-2,.8-3.9,1.9-5.8,3.3-1.9-1.4-3.6-2.6-5.1-3.7-3.5,2-5.5,5-6.3,8.9-.2,1.2-.4,2.9-.7,5.2-.4,2-1,3.7-1.7,5.2,.1,.1,.7,.5,1.7,1.2,0,1.3,0,3,.1,5.3-.1,.8-.4,2.7-.9,5.5,0,1.7-1.1,3.2-3.4,4.4-2.8,1.3-4.8,2.3-6,3.1-.2,.1-.9,.2-2.2,.3-1,0-1.7,.4-2,1.2-1.4,3.1-2.1,5.5-2.1,7,0,.7,.3,1.6,.9,2.6,.5,1.1,.8,1.9,.8,2.5,.6,.1,2.3,0,5-.2,4.9,0,9.1,.8,12.5,2.4,1.9,.8,4.3,2.1,7.3,3.7,.3,.2,.6-.2,.8-.9,.3-.9,.6-1.3,1-1.3,.6,0,1.4,.4,2.4,1.2,.9,.8,1.7,1.2,2.4,1.2s1.3-.2,1.9-.8c.6-.5,1.2-.8,1.9-.8,.8,0,2.1,.3,3.9,.9,1.2,0,2.7-1.1,4.4-3.2,1-.5,2.5-.9,4.6-1.1,.6-.2,.9-.8,1.1-1.8,.5-.2,2.3-.3,5.1-.3h3.8c3.4,.3,6.4,1.9,9.1,4.9,.1,.2,.8,.7,2.2,1.8,.7,.6,1.1,1.3,1.1,2,.1,1.4-.2,4.6-.9,9.7,2.7,.3,4.1,.6,4.4,.5,0,.1-.1,.1-.1,.4,.1,.3,.2,.7,.5,1,.5,.7,2.3,.7,5.2-.1,.3,0,.5,.3,.5,1-.1,.8,.1,1.1,.3,1.1,3.2,.6,6,.3,8.6-.8,.4-.2,.5-1.3,.1-3.2,.2-.1,.7-.1,1.8-.1,.3,.3,.8,1.3,1.7,2.8,.3-.2,1.2-.3,2.4-.5,.2,0,.2-.5,0-1.3-.2-.8-.2-1.4,0-1.6,.3,0,1.4-.1,3.1-.3,.4-.2,.6-.8,.5-2-.2-1.2,0-2,.4-2.5,.4-.3,1.4-.5,3.1-.3,1.7,0,2.6-.1,2.8-.5,1.7-4.1,2.6-7.3,3-9.5,.1-.1,1,0,2.5,.3,1.2,.1,1.8-.1,2-.6,.8-1.7,2.1-3,4.1-4,.2,0,.1-.5-.3-1.4-.4-.8-.5-1.3-.3-1.4,2.9-1.5,5.1-2.3,6.5-2.3,1.3,0,4.2-1.4,8.9-4.1,2.8,2.4,5.8,5.1,9.1,8,2.2,2,4.2,3.4,5.8,4.1,.7,.3,1.3-.5,1.8-2.4,.4-1.6,.6-3,.6-4.2,0-1.6-.2-3.1-.7-4.6-.4-1.4-.7-3-.7-4.5-.6-3.4-.7-6.1-.3-8.1l-6.3,5.1-6.1-4.8,2.4-3c-.6-2.1-1.5-2.9-2.6-2.4l-3.4,.8-.9-4.1,5.5-1.6-.1-4.4-5.7-1.1c-2.6-.8-3.9-1.6-3.9-2.6,0-3.7,.2-6.1,.8-7.3,.4-.9,.4-1.8-.1-2.6-.6-.7-1-1.3-1.3-1.7-.2-.4-1.1-.5-2.6-.4l-2.1,.4c0,.1-.8-.7-2.5-2.5,1.1,0,2.4-.2,3.9-.6-.7-4.1-1.7-7.4-3.1-9.8-.4-.6-1.4-1.1-3-1.5-1.7-.3-2.6-.5-2.6-.5-1.8-2.4-2.9-4.1-3.3-5.1-.8-1.7-1.2-4.1-1.2-7.2-.8-3.9-1.1-6.4-1-7.4,1.2-.2,2.4-.5,3.9-1,1.3-.4,2-.7,2-.9-.5-2.8-.8-4.9-.8-6.3,0-.6,.4-1,1.3-1.1,1.3-.1,2.1-.3,2.3-.4-1.1-2.9-1.6-4.6-1.6-5,2.6-.6,3.9-1,4.1-1.1-.1-1-.3-1.5-.8-1.5-2.7,.4-6.6,1.3-11.8,2.7-5,1.4-8.4,2.1-10,2.4Z"/>
    <text class="cls-8" transform="translate(623.95 521.48)"><tspan class="cls-6" x="0" y="0">L</tspan><tspan x="5.22" y="0">ewisham</tspan></text>
  </g>
  <g id="Bromley">
    <path class="cls-2" d="M771.5,536.8c-2.4,0-4.6-.3-6.8-.9l.5,4.6c-1.2,1.6-3.5,3.7-6.9,6.2l.1,1.9-6.6,4.3-1.4-2.9-2.9,1.4-8.7-10.9-13.3-18.1-8.8-6.4-1.2-1.3-5-2.2-1,5.3-.9,.4v.1l.1,4.4-5.5,1.6,.9,4.1,3.4-.8c1.1-.5,2,.3,2.6,2.4l-2.4,3,6.1,4.8,6.3-5.1c-.4,2-.3,4.7,.3,8.1,0,1.5,.3,3.1,.7,4.5,.5,1.5,.7,3,.7,4.6,0,1.2-.2,2.6-.6,4.2-.5,1.9-1.1,2.7-1.8,2.4-1.6-.7-3.6-2.1-5.8-4.1-3.3-2.9-6.3-5.6-9.1-8-4.7,2.7-7.6,4.1-8.9,4.1-1.4,0-3.6,.8-6.5,2.3-.2,.1-.1,.6,.3,1.4,.4,.9,.5,1.4,.3,1.4-2,1-3.3,2.3-4.1,4-.2,.5-.8,.7-2,.6-1.5-.3-2.4-.4-2.5-.3-.4,2.2-1.3,5.4-3,9.5-.2,.4-1.1,.5-2.8,.5-1.7-.2-2.7,0-3.1,.3-.4,.5-.6,1.3-.4,2.5,.1,1.2-.1,1.8-.5,2-1.7,.2-2.8,.3-3.1,.3-.2,.2-.2,.8,0,1.6,.2,.8,.2,1.3,0,1.3-1.2,.2-2.1,.3-2.4,.5-.9-1.5-1.4-2.5-1.7-2.8-1.1,0-1.6,0-1.8,.1,.4,1.9,.3,3-.1,3.2-2.6,1.1-5.4,1.4-8.6,.8-.2,0-.4-.3-.3-1.1,0-.7-.2-1-.5-1-2.9,.8-4.7,.8-5.2,.1-.3-.3-.4-.7-.5-1,0-.3,.1-.3,.1-.4-.3,.1-1.7-.2-4.4-.5,.7-5.1,1-8.3,.9-9.7,0-.7-.4-1.4-1.1-2-1.4-1.1-2.1-1.6-2.2-1.8-2.7-3-5.7-4.6-9.1-4.9h-3.8c-2.8,0-4.6,.1-5.1,.3-.2,1-.5,1.6-1.1,1.8-2.1,.2-3.6,.6-4.6,1.1-1.7,2.1-3.2,3.2-4.4,3.2-1.8-.6-3.1-.9-3.9-.9-.7,0-1.3,.3-1.9,.8-.6,.6-1.2,.8-1.9,.8s-1.5-.4-2.4-1.2c-1-.8-1.8-1.2-2.4-1.2-.4,0-.7,.4-1,1.3-.2,.7-.5,1.1-.8,.9-3-1.6-5.4-2.9-7.3-3.7-3.4-1.6-7.6-2.4-12.5-2.4-2.7,.2-4.4,.3-5,.2v.1c-1.4,1.4-2.1,2.4-2.2,2.9-.2,1.1-1.4,4.2-3.5,9.5,0,0,0,.1-.1,.2,0,.1,0,.2-.1,.3,0,0,0,.1-.1,.1-1.2,2.4-2.3,4.7-3.2,7l8.1,3.4c3,1.9,4.4,3.2,4.4,4.2-1.1,2.5-.5,5.8,1.7,9.9l4.8,6.7c1.2,2.5,4,4.4,8.5,5.6l3.4,3.9-1.6,2.4,1,.5c2.5-3.9,6-6,10.5-6.2l1.7,2.5-1.8,5c-1.6,2.6-1.1,4.9,1.6,7,3.5,1.5,7.6,4.5,12.5,8.8h4.2l2.9,2.4,.3,1.7c-1.2,6.2-.8,13.7,1.3,22.4,2.3,0,4.8-.3,7.5-1.2l1.4-1.9,1.3-.5,.2-1.1c-.5-1.4,.1-2.1,1.9-1.9,1.3,1.8,1.7,4.1,1.2,6.8,2.7,3.1,4.3,9.1,4.8,18.2l-2.7,2.7,2.1,2.8,2.4-1.1,3.7,4.5c2.8,5.1,7.3,10,13.6,14.7,3.7,2.4,5.9,5.6,6.8,9.5-.4,3.4,1.1,10,4.7,19.6,.5,4.2,1.8,9.8,3.9,16.7l3.8,3.2-1.6,5.4c0,4.5,1.4,10.5,4.2,17.8l2,9,5.8-.7-3.4,11.8,11.8,46.9c2.1-3.4,4.1-8.5,5.9-15-.9-1.9,0-4.8,2.6-8.9,.3-2.5,1.9-5.6,4.9-9.5,.1-.7,1.5-2.2,4.1-4.1l3.2-3.7,4.3,2.9,6.9,7.2c1.2,.8,2.1,3.2,2.8,7.2,1.7,1.9,3.8,2.7,6.3,2.2,1.3,0,2.6,1.3,4,3.8,2.6,2.6,4.6,6.9,5.9,12.9,4,0,8.6-.5,13.7-1.5,5.1-2.2,10.7-3.3,16.8-3.4,1.5,.2,3.5-.3,5.9-1.5l3.8-2c.3-1.2,1.4-3,3.2-5.4l1.8-.9,1.5-1.7-6.5-7-.5-3.2c-1.2-2.3-2.6-4.4-4.2-6.4l-.3-1,2.8-1.3-1.2-3.3,.8-1.4-1.9-4c-.6-.9,0-2.3,1.9-4.3l-.4-7.4,1.3-.8,2-3.9,3.5-1.6,1-2c4.9-2.6,9.4-7.2,13.4-13.9,1.6-.5,3.1-1.8,4.2-3.8,1.4-1,3.9-.8,7.6,.5l.1-2.1,5.5,.4,6.7-8.4c1.4-.9,1.9-2.6,1.3-5.2-1.4-1.4-2.3-3.5-2.9-6.2l-1.5-6.2-1.7-2,.3-3.1c.7-2.1,3.1-4.1,7.3-5.8,4.1-1.8,9.6-1.6,16.6,.5l.6-3.8,3.1,.4,.4-1.4-1.6-1,1.1-1.9,1.8-1.2-.2-2.2,3.1-1.6-.3-3.3,1.8-1.5v-3.8c1.1-1.7,2-3.8,2.4-6.3l-2.1-1.2,1-3.9-2-1.3c.2-1.8,.8-3.4,1.8-4.8,2-2.5,3.1-4.7,3.4-6.7l-1.3-1.5,2.5-3.6,2.6,1.4,1-2.8-2.6-1.2,1.5-4-3.4-2.9,1-2.2c3.1-1.2,4.5-3.7,4.1-7.4l-2.3-.7,.8-1.9-2.9-2.8c1.1-3.2,.6-6.5-1.4-10l1.9-2.3-2.3-3.9c1.5-2.4,1.2-5.2-.9-8.4l9.5,.2c1.9,.2,4.6,.1,8.2-.2l-4.7-13.9c-2.9-8.6-5.1-13.3-6.5-14-2.5-.6-4.7-2-6.6-4.3-.6-.8-1.3-1.7-1.8-2.8-3.5-1.3-9.3-4.2-17.7-8.7-1.6-.8-3.8-1.7-6.7-2.3-2.3-.7-3.7-.9-4-.9-7.1,2.4-13.2,4.2-18.3,5.4-6.5-2.3-13.1-5.9-19.9-11-4.5-3.1-8.9-7.6-13.4-13.4-1.4-2.2-3.1-4.3-5.2-6.3l-7.3-5c-.8,0-1.6,.1-2.4,.1Z"/>
    <text class="cls-8" transform="translate(736.2 670.46)"><tspan x="0" y="0">B</tspan><tspan class="cls-13" x="6.62" y="0">r</tspan><tspan x="9.94" y="0">omley</tspan></text>
  </g>
  <g id="Outline">
    <path class="cls-3" d="M235.1,625.2c4.1,11.4,10.5,13.4,19,6.1,.4-.4,.8-.8,1.3-1.2-.4,.4-.8,.8-1.3,1.3,5.1,4.8,9.7,14.3,14,28.4l4.3,.2-4.8,18.6-3.9-1.7-11,16.9,2.4,1.9-1.8,3.2-1,.5c-2.2,3-5.1,9.6-8.6,19.8l-2.3,7.3,3.6,8.5c-2,10.2-2.2,20-.7,29.2l-2.6,3.5c1.6,4.4,4.9,5.4,10.1,3.1,3.7-2.3,8.2-5.9,13.4-10.7,2.8-1.6,6-5.2,9.8-10.6l-1.1-5.5,5.8-14.8c.5-3.1,3.2-6.1,8.1-9,1.5-1.9,2.3-4.3,2.5-7.3,.3-2.7,1.5-5.1,3.6-7.1,2.4-1.1,4-3.8,4.7-8l-3.7-1.4c2.5-3.7,6.3-8.1,11.3-13,2.2-.3,3.5-1.8,4-4.3l3.5-1.8,8.3-6.1c6.3-3.1,9.8-7.3,10.6-12.5,6.3,1.5,11.4,.9,15.4-1.9l4.1,.5,.2,8.8c.7,6.8,.2,13-1.4,18.7l6.8,2.6,2.7-5.1,7.7,4.6,8.4,6.4c2.5,2.5,4.4,6.4,5.9,11.9,.9,3,1.3,6.6,1.1,10.6l2,.9,4.1,17c-3.4,1.9-8.7,6.7-15.7,14.3l13.4,13.2c4.2,3.2,7.8,.8,10.7-7.2l-.7-5.7,12.8-6.9,3.9-8.3c2.5-.2,7.5,1.6,15.1,5.5l9.6,7.2c3.3,2.7,6,6.2,8.2,10.6,2.6,3.4,7.3,4.5,14.3,3.5l.8,2.4-2.9,1.4,1,3-.3,1.5,5.4,5.3,1.9-1.2c1.6,1.4,2.7,3.1,3.2,5l-6.9,3.8,5.3,10.9-1.8,7.8,3.5,1.2-1.7,7.8,1.9,1.1-2.5,3.2,1.1,1.4,1,4.6,3.2-1,6.3,2.9,5,1.3,2.3-.9,3.7,1,3.9-2.7,2.9,4.2,1.2,.1c.5,1.7,2.2,4,4.8,6.9l-.3,1.1c.8,2.5,2.8,5.7,6.1,9.8,.4,1.7,1.5,3.8,3.5,6.4l13.2-1.4c-3-3.2-3-6.6-.2-10.3l4.4-.6,21.2-14.8,.5-2.9,4.6-2.4-.5-1.4,.2-3.8h1l.4-1.3,1.3-.4-.3-5.1,4.9-5.8c2.9,.8,4.4-1.2,4.6-6l-1.8-4,1.9-1-1.1-2.4,2.3-2.9h1.3l.3-3.8,9.8-3.6,4.8-3.4,3.8,6.5,2.1-1.3,1,2,1.7-2.1,2.3-.3,3.3-3,2.3,1,1.8-1.8,5.1,.4,3.7-2.4,.2-4,1-1.6,2.2-.3c.1-3.3-1.5-7.2-4.7-11.7l1-2.4,6.1-2.9c3.4,.2,5.4-.8,5.9-3l2.3-5.2c.8-2.5,2.8-2.9,5.8-1.3,1.9,1,3.8,1.2,5.6,.7,2.3-1.4,5-2.3,8-3,2.3,.7,3.9,1.9,5,3.8,1.7,4.2,4.8,8.4,9.1,12.8l2.6-4.7,1.7-.3,.2-2.8,4.5,1-.5,1,9.6,7.9,4.2-.8,6.2,26.8,5.8-.7-3.4,11.8,11.8,46.9c2.1-3.4,4.1-8.5,5.9-15-.9-1.9,0-4.8,2.6-8.9,.3-2.5,1.9-5.6,4.9-9.5,.1-.7,1.5-2.2,4.1-4.1l3.2-3.7,4.3,2.9,6.9,7.2c1.2,.8,2.1,3.2,2.8,7.2,1.7,1.9,3.8,2.7,6.3,2.2,1.3,0,2.6,1.3,4,3.8,2.6,2.6,4.6,6.9,5.9,12.9,4,0,8.6-.5,13.7-1.5,5.1-2.2,10.7-3.3,16.8-3.4,1.5,.2,3.5-.3,5.9-1.5l3.8-2c.3-1.2,1.4-3,3.2-5.4l1.8-.9,1.5-1.7-6.5-7-.5-3.2c-1.2-2.3-2.6-4.4-4.2-6.4l-.3-1,2.8-1.3-1.2-3.3,.8-1.4-1.9-4c-.6-.9,0-2.3,1.9-4.3l-.4-7.4,1.3-.8,2-3.9,3.5-1.6,1-2c4.9-2.6,9.4-7.2,13.4-13.9,1.6-.5,3.1-1.8,4.2-3.8,1.4-1,3.9-.8,7.6,.5l.1-2.1,5.5,.4,6.7-8.4c1.4-.9,1.9-2.6,1.3-5.2-1.4-1.4-2.3-3.5-2.9-6.2l-1.5-6.2-1.7-2,.3-3.1c.7-2.1,3.1-4.1,7.3-5.8,4.1-1.8,9.6-1.6,16.6,.5l.6-3.8,3.1,.4,.4-1.4-1.6-1,1.1-1.9,1.8-1.2-.2-2.2,3.1-1.6-.3-3.3,1.8-1.5v-3.8c1.1-1.7,2-3.8,2.4-6.3l-2.1-1.2,1-3.9-2-1.3c.2-1.8,.8-3.4,1.8-4.8,2-2.5,3.1-4.7,3.4-6.7l-1.3-1.5,2.5-3.6,2.6,1.4,1-2.8-2.6-1.2,1.5-4-3.4-2.9,1-2.2c3.1-1.2,4.5-3.7,4.1-7.4l-2.3-.7,.8-1.9-2.9-2.8c1.1-3.2,.6-6.5-1.4-10l1.9-2.3-2.3-3.9c1.5-2.4,1.2-5.2-.9-8.4l9.5,.2c1.9,.2,4.6,.1,8.2-.2l-4.7-13.9c-2.9-8.6-5.1-13.3-6.5-14-2.5-.6-4.8-2.1-6.7-4.6,0-.2,.2-.4,.5-.5,.4-.2,.6-.4,.6-.7,0-.2,.8-.2,2.4-.1,1.6,.1,2.5-.1,2.6-.5-.5-.4-.6-1.4-.4-3,.1-1.6,.2-2.5,.1-2.7-.2-.5-.9-.7-2.2-.5l-1.8,.1c-.2-1.5-.3-2.6-.3-3.1-.1-.9,.1-1.6,.4-2.4,.9-1.1,1.3-3.6,1.3-7.7,2,0,3.1-.4,3.2-1.1,.1-.5,0-.8-.4-1.2-.6-.4-1.1-.8-1.5-1.2l-.24-.26c-1.3-1.3-1.26-2.44-.16-3.64,1.3-1.5,2-2.7,2-3.8,0-.9-.3-1.9-.8-3-.5-1-.7-2-.7-2.9,.1-1.4,.5-3.3,1.3-5.7,.7-2.6,1.4-4.1,1.8-4.4,1.1,0,2,.4,2.7,1.1,.7,.7,1.6,1,2.7,1,.4,0,1.4,.1,2.7,.3,1,.2,1.9,.2,2.5,0,1.3-.3,1.9-1.7,1.9-4.1,.7-1.4,.9-2.9,.7-4.2-.3-1.6-.2-3,.2-4.2,.8-1.3,1.3-2.3,1.5-3.1,.7-3.6,2.6-7,5.7-10.3,.1-.2,.6,0,1.4,.3,.9,.4,1.5,.5,1.8,.3,.5-.3,1.2-.9,2-1.9,.6-.6,1.2-.9,1.8-.9,.5,0,1.1,.2,1.6,.7s1,.7,1.5,.7c1.2,0,1.9-.5,2-1.5,2.4-.3,4.3-1.8,5.7-4.3,1.8-3.3,3.4-5.3,4.8-6.2,.7-.5,1.2-1.4,1.2-2.8,.1-1.1,.6-1.8,1.6-1.9,1.1-.2,2.5-.4,4.3-.6,1.4-.3,2.7-.9,3.6-1.9,.7-.6,2.7-2.2,6-4.7,.7-.8,.9-1.6,.5-2.5-.7-1.8-1.2-3.2-1.3-4.5-.1-.9-.1-1.4-.2-1.4,.7-2,2.4-4,5.1-6.1,1.4-1,2.7-2,4.1-3,0-.1,.1-1.4,.1-3.9,.5-2.3,.7-4.1,.7-5.4-.5-1.8-.6-3.3-.2-4.5-1.9-.4-2.9-1.4-2.9-3,0-1.3,.6-2.4,1.7-3.3,1.2-.9,1.7-1.7,1.8-2.3-.2-1.5-.2-2.7-.2-3.7,0-.8,.7-1.5,2.1-2,1.9-.7,2.9-1.2,3.2-1.5,.5-.5,.7-1.6,.6-3.2-.1-1.7,.1-2.8,.5-3.3,.6-.6,2.1-1.5,4.6-2.9,2.4-1.2,3.9-2.2,4.3-3-5.1-4.2-10.1-6.3-15.1-6.3-2,0-4.3,.3-6.9,.9,1.1-.3,2-.5,2.6-.6l1.2-8.5,3.3-5-.4-4.7c-.4-2.2,1.7-3.9,6.2-5.1,2.1-1.8,5.8-2.8,10.8-2.9l4-2.9-.7-2.2-2.7-2.7-2-10,19.9-2.2v-1.6l1.5-1.1-.8-4.5-1.6-.4-.5-5.8,1.1-.7-5.1-11.6c2.7-1,5.8-.1,9.2,2.7l.8-1.6-.8-.9,.4-1.5-6.2-3.2,3.5-5.7,4.3,1.5,1.1-3.3-2.2-1.8,1.5-2.5,2.3-.2v-2.2l2.8-.5c1.9,6.4,3.5,13.9,4.7,22.5l12.9-1.6c0-4.1,.6-6.8,1.8-8.2,2.7-1.8,2.8-3.8,.3-6l-.5-15.1,2.9-.5c3.6-2.4,7.7-3,12.3-1.8l27.6-6.2-1.3-4.5,4.2-.4,1.2-2.2,11.6-1.2,1.1-1.4,24.5-3.5,2.2,2.7,2.3-.5,.2-6-3.2-6.4-3.3,.7c-.5-4.4-1.5-8.7-2.9-12.8l-3.3-4.4-2.7,.9c-3-4.4-6.2-7.2-9.8-8.5l-4.5-17.9c-7.9,.7-17.9,2.4-30.1,5-2.6-7.1-5.4-14-8.5-20.6-2-4.5-4-8.6-5.8-12.2-4.9-5.2-9.3-12.3-13.3-21l-1.1-18.3c-4.6-.1-11.7-1.5-21.2-4.2l3.5-5.6,2.2-1.3,.5-3.4,6.2-1.8-2.4-3.5c-3.2-6.8-9.6-13.7-19.2-20.6-8.2-4.5-19-12.2-32.5-23.3-7.9,5.3-17.9,10.2-30.1,14.5l-.87-1.12-.23-.28c-7.83,1.83-9.45,2.03-17.9,.9l-2,2.5-1.6-1.4c-1.9-1.5-2.8-1.5-2.9,0l-1.1,1.6c-4.5,.8-9,3-13.8,6.7-1.4-1.6-2.8-2.4-4.2-2.3l-12.8-1.5h-21.2c-8.5,2.8-16.5,8.8-24,18.2l-3.6-3.9-10.9,7.5-.9-1.1-8.7,3.1-4-5.1-6.9,3.6c1.9,2,3.1,4.4,3.7,7.3l-3.7,2.7,.8,6.3-3.5,1.9c-1.9,.7-3.9,.7-6,0l-7.9-4.2-4,2.7c-3.1,1.9-5.9,2.4-8.4,1.5-4.3-.6-10.7-4.4-19.2-11.5-5.6-.2-8.8-2-9.4-5.6l1.1-4.3,2.5-1.9,3.3,.4,1.1-1.4-1.9-3.5c-5.3,1.3-11,3.5-16.8,6.5-3.1-7-11-15.6-23.6-26l3.6-7.7-.9-9.6-1.8-2v-1.8c-.5-2.8-1.5-4-3.1-3.6-3.5,.6-6.1,.9-7.9,.9-4.2-2.1-10-3-17.6-2.7l-2.7-3.5-1.3-.2-2,1.3-2.4-1.1-4.7-.9,.7-5.2h-5.9l.2-1.7,1-17.2,2.4-9.4-.2-3.3-2.7-4.5,.7-35.6-.1-.7c-6.3-.1-11.1-.4-14.2-1.1-4.5-1.1-8.7-1.8-12.8-2.1l-17.5-.6c-3.2-1.3-7-1.7-11.6-1.3-4,2.4-11.2,2.7-21.6,.9l-11.9-7c-3.8-2.8-8.1-4.2-13-4.2-5.2,.6-11.4-.1-18.6-1.9-8.7-2.4-15.4-1.2-20.1,3.7-2.6,2.2-7.1,2.9-13.5,2.4-8-.8-15.4,1-22,5.4-3.9,2.6-9,2.8-15.5,.7-3-1.8-6.6-2.8-10.7-3l.1,13.2-11.1,19.3-4.4-.2-7,9c-.1,0-.1,.1-.1,.1l-7.7,2-4.6,7.4-5.8-3.2,1.6-5.4-1.7-.6-2,3.3-1.1-.7-1.6-5.6-3.2-.5,.9,5.3-3,.3-2.2-2-3.5,4.3-1.7-1.3-2.3-.3,4,9.9-12.1,7.5-2.1-.6-8.5,4.4-3.2-5.7-31,11.5c-.6,9.4-2.8,18-6.7,26l-3.6,3.3-4.8-7.1-3.6-.6-4.1,2.9-1,2.6-2.1,1-3,.4-2,6.5c-6.2,1.6-11.4,3.2-15.6,4.8-3.9-.2-6.8,.5-8.7,2.3l-9.7,.3-3.7-3-10.6-4.6-4.8-2.9-5.4,6.3c-3.2,.8-6,2-8.3,3.6-5.8,3.5-10.1,8.5-13,15.1l-4.2-1.9-5.9,4c-5.4,2.8-11.1,5.2-17.3,7.1l-11.1,10.7-22.2,8.8c-6.8,1.3-12,2.9-15.8,4.9-5.2,2.5-11.2,2.3-18-.6l-4.1-2.2c-2.5-.7-5.4-1.4-8.5-2-6.3,.1-11.6-1.1-15.9-3.8l-2.9-1.7c-5.1-1.1-10-.9-14.5,.7l-4,8.9-9.3,5.4-10.9-5.5-6.2-4.9-3.4-4.5-7.8-6.8-8.1-5.1-4.3-3.9c-1.9-3.8-4.3-6.1-7-7.2-7.2,.1-9.7,2.3-7.6,6.5,1.7,1.3,1.9,3,.7,5.1-1,1.8-1.6,4.2-1.9,7.1-.1,1.9,1.1,3.2,3.7,4,3,.9,3.7,2.9,2.2,6.2-1.6,3.6-2.6,7.5-2.9,11.7-1.3,3.3-1.4,6.1-.4,8.6l3.6,9.9c.5,2.3-.5,3.2-3,2.6-1.9,0-2.8,1.2-2.8,3.8,.2,2.1,1,3.9,2.3,5.5l.9,7.5-.7,1.7,1.1,1.2v1.8l1.4,.5c.3,1.9,1.6,4.8,3.9,9l.2,3.4c.2,1.5,1.6,2.7,4.2,3.7,1.9,.8,2.8,3,2.8,6.6l-.1,3.4c.2,1.5,.9,3,2.1,4.5l1.9,.5,1.4-.6,1.8,2.1c-1.8,2.4-1.8,5.6,.1,9.6l-.2,7.8,2.6,7.5,2.8,4.7,4.1,2.4v5.4l-7.5,13.1-3.3,1.1-3.4,7.9-3.6,.3c0,3.8-.6,7.4-1.9,10.8-2.1,2-2.9,3.9-2.5,5.7l1.2,4.3,4.7,4.5c-.6,1.2-.4,2.7,.5,4.5l1.7,5.5c.4,1.7,0,3.3-1.2,5.2-.8,1.3-1.1,2.6-.7,4,0,3.2,.3,6.5,.9,10,.2,.9-.2,1.9-1,2.9-2.1,2.8-1.7,6,1.2,9.3,.1,2.3,.7,4.2,2,5.8,1.2,.4,2.5,1.5,4,3.3l3.6,6.3-2.9,4.3,.1,2.3-1.4,2,.5,2c-3.3,1.9-4.8,4.7-4.3,8.4,.3,2.3-.3,5-1.7,8l-4.9,1.8-.7,5-5.3,4,.3,6.1c-3.3,4.7-5.5,10.4-6.7,17.1-.3,6.3-2.5,13.5-6.5,21.4l2.4-.9c7.2-.8,13.6,2.7,19.1,10.2,2.8,3.3,6.6,4.9,11.3,4.8l4.7-.1c3.3-.8,6.1,.1,8.3,2.6,1.8,1.6,4,2.9,6.5,3.8,2.4,0,4.9,.3,7.5,1.1,3.4,.2,5.8,1,7.3,2.5v6.2l-4.2,.8,.7,8.1,5.2-.3,.3,14.4,2.2,.2-1.5,7.9,13.6-4.2-1.1,9.8,10.5,.9v8.4l14,3.8,1.5-2,8.7-4.6c1.9-1,3.8-.7,5.8,1,.6,.9,1.4,1.5,2.4,2-.2,2.9,1.5,4.8,5,5.5,2.4,4.3,5.3,8,8.6,11.3,5.9-3.7,12-3.7,18.3,.2l5.2,4.1-2.1,1.8,4.1,9.9-5.8,.5,1.3,8.1,7.5,.3,.2,3c4.8,2.2,9.7,1.5,14.7-2.3l9.2-4.3c2.9-1,6.6-.6,11.2,1.2l18.8,14.5c5.1,5.3,9.3,10.1,12.7,14.3"/>
  </g>
</svg>